<mxfile host="Electron" modified="2024-06-16T11:04:09.050Z" agent="Mozilla/5.0 (Windows NT 10.0; Win64; x64) AppleWebKit/537.36 (KHTML, like Gecko) draw.io/22.1.2 Chrome/114.0.5735.289 Electron/25.9.4 Safari/537.36" etag="E_LvbeYiVc1ronc4nsg7" version="22.1.2" type="device">
  <diagram name="Page-1" id="G8UrM7M67HIisbb6Z9TN">
    <mxGraphModel dx="2048" dy="893" grid="1" gridSize="10" guides="1" tooltips="1" connect="1" arrows="1" fold="1" page="1" pageScale="1" pageWidth="850" pageHeight="1100" math="0" shadow="0">
      <root>
        <mxCell id="0" />
        <mxCell id="1" parent="0" />
        <mxCell id="WxOFqhejSJ8d4apdW_I4-1" value="" style="shape=table;startSize=0;container=1;collapsible=0;childLayout=tableLayout;fontSize=16;" vertex="1" parent="1">
          <mxGeometry x="340" y="40" width="170" height="100" as="geometry" />
        </mxCell>
        <mxCell id="WxOFqhejSJ8d4apdW_I4-25" style="shape=tableRow;horizontal=0;startSize=0;swimlaneHead=0;swimlaneBody=0;strokeColor=inherit;top=0;left=0;bottom=0;right=0;collapsible=0;dropTarget=0;fillColor=none;points=[[0,0.5],[1,0.5]];portConstraint=eastwest;fontSize=16;" vertex="1" parent="WxOFqhejSJ8d4apdW_I4-1">
          <mxGeometry width="170" height="25" as="geometry" />
        </mxCell>
        <mxCell id="WxOFqhejSJ8d4apdW_I4-26" value="Q" style="shape=partialRectangle;html=1;whiteSpace=wrap;connectable=0;strokeColor=inherit;overflow=hidden;fillColor=none;top=0;left=0;bottom=0;right=0;pointerEvents=1;fontSize=16;" vertex="1" parent="WxOFqhejSJ8d4apdW_I4-25">
          <mxGeometry width="43" height="25" as="geometry">
            <mxRectangle width="43" height="25" as="alternateBounds" />
          </mxGeometry>
        </mxCell>
        <mxCell id="WxOFqhejSJ8d4apdW_I4-27" value="&lt;font color=&quot;#cc0000&quot;&gt;Q&lt;/font&gt;" style="shape=partialRectangle;html=1;whiteSpace=wrap;connectable=0;strokeColor=inherit;overflow=hidden;fillColor=none;top=0;left=0;bottom=0;right=0;pointerEvents=1;fontSize=16;" vertex="1" parent="WxOFqhejSJ8d4apdW_I4-25">
          <mxGeometry x="43" width="42" height="25" as="geometry">
            <mxRectangle width="42" height="25" as="alternateBounds" />
          </mxGeometry>
        </mxCell>
        <mxCell id="WxOFqhejSJ8d4apdW_I4-28" style="shape=partialRectangle;html=1;whiteSpace=wrap;connectable=0;strokeColor=inherit;overflow=hidden;fillColor=none;top=0;left=0;bottom=0;right=0;pointerEvents=1;fontSize=16;" vertex="1" parent="WxOFqhejSJ8d4apdW_I4-25">
          <mxGeometry x="85" width="43" height="25" as="geometry">
            <mxRectangle width="43" height="25" as="alternateBounds" />
          </mxGeometry>
        </mxCell>
        <mxCell id="WxOFqhejSJ8d4apdW_I4-29" style="shape=partialRectangle;html=1;whiteSpace=wrap;connectable=0;strokeColor=inherit;overflow=hidden;fillColor=none;top=0;left=0;bottom=0;right=0;pointerEvents=1;fontSize=16;" vertex="1" parent="WxOFqhejSJ8d4apdW_I4-25">
          <mxGeometry x="128" width="42" height="25" as="geometry">
            <mxRectangle width="42" height="25" as="alternateBounds" />
          </mxGeometry>
        </mxCell>
        <mxCell id="WxOFqhejSJ8d4apdW_I4-6" value="" style="shape=tableRow;horizontal=0;startSize=0;swimlaneHead=0;swimlaneBody=0;strokeColor=inherit;top=0;left=0;bottom=0;right=0;collapsible=0;dropTarget=0;fillColor=none;points=[[0,0.5],[1,0.5]];portConstraint=eastwest;fontSize=16;" vertex="1" parent="WxOFqhejSJ8d4apdW_I4-1">
          <mxGeometry y="25" width="170" height="25" as="geometry" />
        </mxCell>
        <mxCell id="WxOFqhejSJ8d4apdW_I4-7" value="" style="shape=partialRectangle;html=1;whiteSpace=wrap;connectable=0;strokeColor=inherit;overflow=hidden;fillColor=none;top=0;left=0;bottom=0;right=0;pointerEvents=1;fontSize=16;" vertex="1" parent="WxOFqhejSJ8d4apdW_I4-6">
          <mxGeometry width="43" height="25" as="geometry">
            <mxRectangle width="43" height="25" as="alternateBounds" />
          </mxGeometry>
        </mxCell>
        <mxCell id="WxOFqhejSJ8d4apdW_I4-8" value="" style="shape=partialRectangle;html=1;whiteSpace=wrap;connectable=0;strokeColor=inherit;overflow=hidden;fillColor=none;top=0;left=0;bottom=0;right=0;pointerEvents=1;fontSize=16;" vertex="1" parent="WxOFqhejSJ8d4apdW_I4-6">
          <mxGeometry x="43" width="42" height="25" as="geometry">
            <mxRectangle width="42" height="25" as="alternateBounds" />
          </mxGeometry>
        </mxCell>
        <mxCell id="WxOFqhejSJ8d4apdW_I4-9" value="" style="shape=partialRectangle;html=1;whiteSpace=wrap;connectable=0;strokeColor=inherit;overflow=hidden;fillColor=none;top=0;left=0;bottom=0;right=0;pointerEvents=1;fontSize=16;" vertex="1" parent="WxOFqhejSJ8d4apdW_I4-6">
          <mxGeometry x="85" width="43" height="25" as="geometry">
            <mxRectangle width="43" height="25" as="alternateBounds" />
          </mxGeometry>
        </mxCell>
        <mxCell id="WxOFqhejSJ8d4apdW_I4-30" style="shape=partialRectangle;html=1;whiteSpace=wrap;connectable=0;strokeColor=inherit;overflow=hidden;fillColor=none;top=0;left=0;bottom=0;right=0;pointerEvents=1;fontSize=16;" vertex="1" parent="WxOFqhejSJ8d4apdW_I4-6">
          <mxGeometry x="128" width="42" height="25" as="geometry">
            <mxRectangle width="42" height="25" as="alternateBounds" />
          </mxGeometry>
        </mxCell>
        <mxCell id="WxOFqhejSJ8d4apdW_I4-10" value="" style="shape=tableRow;horizontal=0;startSize=0;swimlaneHead=0;swimlaneBody=0;strokeColor=inherit;top=0;left=0;bottom=0;right=0;collapsible=0;dropTarget=0;fillColor=none;points=[[0,0.5],[1,0.5]];portConstraint=eastwest;fontSize=16;" vertex="1" parent="WxOFqhejSJ8d4apdW_I4-1">
          <mxGeometry y="50" width="170" height="25" as="geometry" />
        </mxCell>
        <mxCell id="WxOFqhejSJ8d4apdW_I4-11" value="" style="shape=partialRectangle;html=1;whiteSpace=wrap;connectable=0;strokeColor=inherit;overflow=hidden;fillColor=none;top=0;left=0;bottom=0;right=0;pointerEvents=1;fontSize=16;" vertex="1" parent="WxOFqhejSJ8d4apdW_I4-10">
          <mxGeometry width="43" height="25" as="geometry">
            <mxRectangle width="43" height="25" as="alternateBounds" />
          </mxGeometry>
        </mxCell>
        <mxCell id="WxOFqhejSJ8d4apdW_I4-12" value="" style="shape=partialRectangle;html=1;whiteSpace=wrap;connectable=0;strokeColor=inherit;overflow=hidden;fillColor=none;top=0;left=0;bottom=0;right=0;pointerEvents=1;fontSize=16;" vertex="1" parent="WxOFqhejSJ8d4apdW_I4-10">
          <mxGeometry x="43" width="42" height="25" as="geometry">
            <mxRectangle width="42" height="25" as="alternateBounds" />
          </mxGeometry>
        </mxCell>
        <mxCell id="WxOFqhejSJ8d4apdW_I4-13" value="" style="shape=partialRectangle;html=1;whiteSpace=wrap;connectable=0;strokeColor=inherit;overflow=hidden;fillColor=none;top=0;left=0;bottom=0;right=0;pointerEvents=1;fontSize=16;" vertex="1" parent="WxOFqhejSJ8d4apdW_I4-10">
          <mxGeometry x="85" width="43" height="25" as="geometry">
            <mxRectangle width="43" height="25" as="alternateBounds" />
          </mxGeometry>
        </mxCell>
        <mxCell id="WxOFqhejSJ8d4apdW_I4-31" style="shape=partialRectangle;html=1;whiteSpace=wrap;connectable=0;strokeColor=inherit;overflow=hidden;fillColor=none;top=0;left=0;bottom=0;right=0;pointerEvents=1;fontSize=16;" vertex="1" parent="WxOFqhejSJ8d4apdW_I4-10">
          <mxGeometry x="128" width="42" height="25" as="geometry">
            <mxRectangle width="42" height="25" as="alternateBounds" />
          </mxGeometry>
        </mxCell>
        <mxCell id="WxOFqhejSJ8d4apdW_I4-21" style="shape=tableRow;horizontal=0;startSize=0;swimlaneHead=0;swimlaneBody=0;strokeColor=inherit;top=0;left=0;bottom=0;right=0;collapsible=0;dropTarget=0;fillColor=none;points=[[0,0.5],[1,0.5]];portConstraint=eastwest;fontSize=16;" vertex="1" parent="WxOFqhejSJ8d4apdW_I4-1">
          <mxGeometry y="75" width="170" height="25" as="geometry" />
        </mxCell>
        <mxCell id="WxOFqhejSJ8d4apdW_I4-22" style="shape=partialRectangle;html=1;whiteSpace=wrap;connectable=0;strokeColor=inherit;overflow=hidden;fillColor=none;top=0;left=0;bottom=0;right=0;pointerEvents=1;fontSize=16;" vertex="1" parent="WxOFqhejSJ8d4apdW_I4-21">
          <mxGeometry width="43" height="25" as="geometry">
            <mxRectangle width="43" height="25" as="alternateBounds" />
          </mxGeometry>
        </mxCell>
        <mxCell id="WxOFqhejSJ8d4apdW_I4-23" style="shape=partialRectangle;html=1;whiteSpace=wrap;connectable=0;strokeColor=inherit;overflow=hidden;fillColor=none;top=0;left=0;bottom=0;right=0;pointerEvents=1;fontSize=16;" vertex="1" parent="WxOFqhejSJ8d4apdW_I4-21">
          <mxGeometry x="43" width="42" height="25" as="geometry">
            <mxRectangle width="42" height="25" as="alternateBounds" />
          </mxGeometry>
        </mxCell>
        <mxCell id="WxOFqhejSJ8d4apdW_I4-24" style="shape=partialRectangle;html=1;whiteSpace=wrap;connectable=0;strokeColor=inherit;overflow=hidden;fillColor=none;top=0;left=0;bottom=0;right=0;pointerEvents=1;fontSize=16;" vertex="1" parent="WxOFqhejSJ8d4apdW_I4-21">
          <mxGeometry x="85" width="43" height="25" as="geometry">
            <mxRectangle width="43" height="25" as="alternateBounds" />
          </mxGeometry>
        </mxCell>
        <mxCell id="WxOFqhejSJ8d4apdW_I4-32" style="shape=partialRectangle;html=1;whiteSpace=wrap;connectable=0;strokeColor=inherit;overflow=hidden;fillColor=none;top=0;left=0;bottom=0;right=0;pointerEvents=1;fontSize=16;" vertex="1" parent="WxOFqhejSJ8d4apdW_I4-21">
          <mxGeometry x="128" width="42" height="25" as="geometry">
            <mxRectangle width="42" height="25" as="alternateBounds" />
          </mxGeometry>
        </mxCell>
        <mxCell id="WxOFqhejSJ8d4apdW_I4-59" value="" style="shape=table;startSize=0;container=1;collapsible=0;childLayout=tableLayout;fontSize=16;" vertex="1" parent="1">
          <mxGeometry x="138" y="187" width="170" height="100" as="geometry" />
        </mxCell>
        <mxCell id="WxOFqhejSJ8d4apdW_I4-60" style="shape=tableRow;horizontal=0;startSize=0;swimlaneHead=0;swimlaneBody=0;strokeColor=inherit;top=0;left=0;bottom=0;right=0;collapsible=0;dropTarget=0;fillColor=none;points=[[0,0.5],[1,0.5]];portConstraint=eastwest;fontSize=16;" vertex="1" parent="WxOFqhejSJ8d4apdW_I4-59">
          <mxGeometry width="170" height="25" as="geometry" />
        </mxCell>
        <mxCell id="WxOFqhejSJ8d4apdW_I4-61" value="Q" style="shape=partialRectangle;html=1;whiteSpace=wrap;connectable=0;strokeColor=inherit;overflow=hidden;fillColor=none;top=0;left=0;bottom=0;right=0;pointerEvents=1;fontSize=16;" vertex="1" parent="WxOFqhejSJ8d4apdW_I4-60">
          <mxGeometry width="43" height="25" as="geometry">
            <mxRectangle width="43" height="25" as="alternateBounds" />
          </mxGeometry>
        </mxCell>
        <mxCell id="WxOFqhejSJ8d4apdW_I4-62" style="shape=partialRectangle;html=1;whiteSpace=wrap;connectable=0;strokeColor=inherit;overflow=hidden;fillColor=none;top=0;left=0;bottom=0;right=0;pointerEvents=1;fontSize=16;" vertex="1" parent="WxOFqhejSJ8d4apdW_I4-60">
          <mxGeometry x="43" width="42" height="25" as="geometry">
            <mxRectangle width="42" height="25" as="alternateBounds" />
          </mxGeometry>
        </mxCell>
        <mxCell id="WxOFqhejSJ8d4apdW_I4-63" style="shape=partialRectangle;html=1;whiteSpace=wrap;connectable=0;strokeColor=inherit;overflow=hidden;fillColor=none;top=0;left=0;bottom=0;right=0;pointerEvents=1;fontSize=16;" vertex="1" parent="WxOFqhejSJ8d4apdW_I4-60">
          <mxGeometry x="85" width="43" height="25" as="geometry">
            <mxRectangle width="43" height="25" as="alternateBounds" />
          </mxGeometry>
        </mxCell>
        <mxCell id="WxOFqhejSJ8d4apdW_I4-64" style="shape=partialRectangle;html=1;whiteSpace=wrap;connectable=0;strokeColor=inherit;overflow=hidden;fillColor=none;top=0;left=0;bottom=0;right=0;pointerEvents=1;fontSize=16;" vertex="1" parent="WxOFqhejSJ8d4apdW_I4-60">
          <mxGeometry x="128" width="42" height="25" as="geometry">
            <mxRectangle width="42" height="25" as="alternateBounds" />
          </mxGeometry>
        </mxCell>
        <mxCell id="WxOFqhejSJ8d4apdW_I4-65" value="" style="shape=tableRow;horizontal=0;startSize=0;swimlaneHead=0;swimlaneBody=0;strokeColor=inherit;top=0;left=0;bottom=0;right=0;collapsible=0;dropTarget=0;fillColor=none;points=[[0,0.5],[1,0.5]];portConstraint=eastwest;fontSize=16;" vertex="1" parent="WxOFqhejSJ8d4apdW_I4-59">
          <mxGeometry y="25" width="170" height="25" as="geometry" />
        </mxCell>
        <mxCell id="WxOFqhejSJ8d4apdW_I4-66" value="" style="shape=partialRectangle;html=1;whiteSpace=wrap;connectable=0;strokeColor=inherit;overflow=hidden;fillColor=none;top=0;left=0;bottom=0;right=0;pointerEvents=1;fontSize=16;" vertex="1" parent="WxOFqhejSJ8d4apdW_I4-65">
          <mxGeometry width="43" height="25" as="geometry">
            <mxRectangle width="43" height="25" as="alternateBounds" />
          </mxGeometry>
        </mxCell>
        <mxCell id="WxOFqhejSJ8d4apdW_I4-67" value="" style="shape=partialRectangle;html=1;whiteSpace=wrap;connectable=0;strokeColor=inherit;overflow=hidden;fillColor=none;top=0;left=0;bottom=0;right=0;pointerEvents=1;fontSize=16;" vertex="1" parent="WxOFqhejSJ8d4apdW_I4-65">
          <mxGeometry x="43" width="42" height="25" as="geometry">
            <mxRectangle width="42" height="25" as="alternateBounds" />
          </mxGeometry>
        </mxCell>
        <mxCell id="WxOFqhejSJ8d4apdW_I4-68" value="Q" style="shape=partialRectangle;html=1;whiteSpace=wrap;connectable=0;strokeColor=inherit;overflow=hidden;fillColor=none;top=0;left=0;bottom=0;right=0;pointerEvents=1;fontSize=16;" vertex="1" parent="WxOFqhejSJ8d4apdW_I4-65">
          <mxGeometry x="85" width="43" height="25" as="geometry">
            <mxRectangle width="43" height="25" as="alternateBounds" />
          </mxGeometry>
        </mxCell>
        <mxCell id="WxOFqhejSJ8d4apdW_I4-69" style="shape=partialRectangle;html=1;whiteSpace=wrap;connectable=0;strokeColor=inherit;overflow=hidden;fillColor=none;top=0;left=0;bottom=0;right=0;pointerEvents=1;fontSize=16;" vertex="1" parent="WxOFqhejSJ8d4apdW_I4-65">
          <mxGeometry x="128" width="42" height="25" as="geometry">
            <mxRectangle width="42" height="25" as="alternateBounds" />
          </mxGeometry>
        </mxCell>
        <mxCell id="WxOFqhejSJ8d4apdW_I4-70" value="" style="shape=tableRow;horizontal=0;startSize=0;swimlaneHead=0;swimlaneBody=0;strokeColor=inherit;top=0;left=0;bottom=0;right=0;collapsible=0;dropTarget=0;fillColor=none;points=[[0,0.5],[1,0.5]];portConstraint=eastwest;fontSize=16;" vertex="1" parent="WxOFqhejSJ8d4apdW_I4-59">
          <mxGeometry y="50" width="170" height="25" as="geometry" />
        </mxCell>
        <mxCell id="WxOFqhejSJ8d4apdW_I4-71" value="" style="shape=partialRectangle;html=1;whiteSpace=wrap;connectable=0;strokeColor=inherit;overflow=hidden;fillColor=none;top=0;left=0;bottom=0;right=0;pointerEvents=1;fontSize=16;" vertex="1" parent="WxOFqhejSJ8d4apdW_I4-70">
          <mxGeometry width="43" height="25" as="geometry">
            <mxRectangle width="43" height="25" as="alternateBounds" />
          </mxGeometry>
        </mxCell>
        <mxCell id="WxOFqhejSJ8d4apdW_I4-72" value="" style="shape=partialRectangle;html=1;whiteSpace=wrap;connectable=0;strokeColor=inherit;overflow=hidden;fillColor=none;top=0;left=0;bottom=0;right=0;pointerEvents=1;fontSize=16;" vertex="1" parent="WxOFqhejSJ8d4apdW_I4-70">
          <mxGeometry x="43" width="42" height="25" as="geometry">
            <mxRectangle width="42" height="25" as="alternateBounds" />
          </mxGeometry>
        </mxCell>
        <mxCell id="WxOFqhejSJ8d4apdW_I4-73" value="" style="shape=partialRectangle;html=1;whiteSpace=wrap;connectable=0;strokeColor=inherit;overflow=hidden;fillColor=none;top=0;left=0;bottom=0;right=0;pointerEvents=1;fontSize=16;" vertex="1" parent="WxOFqhejSJ8d4apdW_I4-70">
          <mxGeometry x="85" width="43" height="25" as="geometry">
            <mxRectangle width="43" height="25" as="alternateBounds" />
          </mxGeometry>
        </mxCell>
        <mxCell id="WxOFqhejSJ8d4apdW_I4-74" style="shape=partialRectangle;html=1;whiteSpace=wrap;connectable=0;strokeColor=inherit;overflow=hidden;fillColor=none;top=0;left=0;bottom=0;right=0;pointerEvents=1;fontSize=16;" vertex="1" parent="WxOFqhejSJ8d4apdW_I4-70">
          <mxGeometry x="128" width="42" height="25" as="geometry">
            <mxRectangle width="42" height="25" as="alternateBounds" />
          </mxGeometry>
        </mxCell>
        <mxCell id="WxOFqhejSJ8d4apdW_I4-75" style="shape=tableRow;horizontal=0;startSize=0;swimlaneHead=0;swimlaneBody=0;strokeColor=inherit;top=0;left=0;bottom=0;right=0;collapsible=0;dropTarget=0;fillColor=none;points=[[0,0.5],[1,0.5]];portConstraint=eastwest;fontSize=16;" vertex="1" parent="WxOFqhejSJ8d4apdW_I4-59">
          <mxGeometry y="75" width="170" height="25" as="geometry" />
        </mxCell>
        <mxCell id="WxOFqhejSJ8d4apdW_I4-76" style="shape=partialRectangle;html=1;whiteSpace=wrap;connectable=0;strokeColor=inherit;overflow=hidden;fillColor=none;top=0;left=0;bottom=0;right=0;pointerEvents=1;fontSize=16;" vertex="1" parent="WxOFqhejSJ8d4apdW_I4-75">
          <mxGeometry width="43" height="25" as="geometry">
            <mxRectangle width="43" height="25" as="alternateBounds" />
          </mxGeometry>
        </mxCell>
        <mxCell id="WxOFqhejSJ8d4apdW_I4-77" style="shape=partialRectangle;html=1;whiteSpace=wrap;connectable=0;strokeColor=inherit;overflow=hidden;fillColor=none;top=0;left=0;bottom=0;right=0;pointerEvents=1;fontSize=16;" vertex="1" parent="WxOFqhejSJ8d4apdW_I4-75">
          <mxGeometry x="43" width="42" height="25" as="geometry">
            <mxRectangle width="42" height="25" as="alternateBounds" />
          </mxGeometry>
        </mxCell>
        <mxCell id="WxOFqhejSJ8d4apdW_I4-78" style="shape=partialRectangle;html=1;whiteSpace=wrap;connectable=0;strokeColor=inherit;overflow=hidden;fillColor=none;top=0;left=0;bottom=0;right=0;pointerEvents=1;fontSize=16;" vertex="1" parent="WxOFqhejSJ8d4apdW_I4-75">
          <mxGeometry x="85" width="43" height="25" as="geometry">
            <mxRectangle width="43" height="25" as="alternateBounds" />
          </mxGeometry>
        </mxCell>
        <mxCell id="WxOFqhejSJ8d4apdW_I4-79" style="shape=partialRectangle;html=1;whiteSpace=wrap;connectable=0;strokeColor=inherit;overflow=hidden;fillColor=none;top=0;left=0;bottom=0;right=0;pointerEvents=1;fontSize=16;" vertex="1" parent="WxOFqhejSJ8d4apdW_I4-75">
          <mxGeometry x="128" width="42" height="25" as="geometry">
            <mxRectangle width="42" height="25" as="alternateBounds" />
          </mxGeometry>
        </mxCell>
        <mxCell id="WxOFqhejSJ8d4apdW_I4-80" value="0, 0" style="text;html=1;strokeColor=none;fillColor=none;align=center;verticalAlign=middle;whiteSpace=wrap;rounded=0;" vertex="1" parent="1">
          <mxGeometry x="365" y="10" width="60" height="30" as="geometry" />
        </mxCell>
        <mxCell id="WxOFqhejSJ8d4apdW_I4-81" value="1, 2" style="text;html=1;strokeColor=none;fillColor=none;align=center;verticalAlign=middle;whiteSpace=wrap;rounded=0;" vertex="1" parent="1">
          <mxGeometry x="200" y="157" width="60" height="30" as="geometry" />
        </mxCell>
        <mxCell id="WxOFqhejSJ8d4apdW_I4-82" value="" style="shape=table;startSize=0;container=1;collapsible=0;childLayout=tableLayout;fontSize=16;" vertex="1" parent="1">
          <mxGeometry x="-65" y="357" width="163" height="100" as="geometry" />
        </mxCell>
        <mxCell id="WxOFqhejSJ8d4apdW_I4-83" style="shape=tableRow;horizontal=0;startSize=0;swimlaneHead=0;swimlaneBody=0;strokeColor=inherit;top=0;left=0;bottom=0;right=0;collapsible=0;dropTarget=0;fillColor=none;points=[[0,0.5],[1,0.5]];portConstraint=eastwest;fontSize=16;" vertex="1" parent="WxOFqhejSJ8d4apdW_I4-82">
          <mxGeometry width="163" height="25" as="geometry" />
        </mxCell>
        <mxCell id="WxOFqhejSJ8d4apdW_I4-84" value="Q" style="shape=partialRectangle;html=1;whiteSpace=wrap;connectable=0;strokeColor=inherit;overflow=hidden;fillColor=none;top=0;left=0;bottom=0;right=0;pointerEvents=1;fontSize=16;" vertex="1" parent="WxOFqhejSJ8d4apdW_I4-83">
          <mxGeometry width="43" height="25" as="geometry">
            <mxRectangle width="43" height="25" as="alternateBounds" />
          </mxGeometry>
        </mxCell>
        <mxCell id="WxOFqhejSJ8d4apdW_I4-85" style="shape=partialRectangle;html=1;whiteSpace=wrap;connectable=0;strokeColor=inherit;overflow=hidden;fillColor=none;top=0;left=0;bottom=0;right=0;pointerEvents=1;fontSize=16;" vertex="1" parent="WxOFqhejSJ8d4apdW_I4-83">
          <mxGeometry x="43" width="39" height="25" as="geometry">
            <mxRectangle width="39" height="25" as="alternateBounds" />
          </mxGeometry>
        </mxCell>
        <mxCell id="WxOFqhejSJ8d4apdW_I4-86" style="shape=partialRectangle;html=1;whiteSpace=wrap;connectable=0;strokeColor=inherit;overflow=hidden;fillColor=none;top=0;left=0;bottom=0;right=0;pointerEvents=1;fontSize=16;" vertex="1" parent="WxOFqhejSJ8d4apdW_I4-83">
          <mxGeometry x="82" width="39" height="25" as="geometry">
            <mxRectangle width="39" height="25" as="alternateBounds" />
          </mxGeometry>
        </mxCell>
        <mxCell id="WxOFqhejSJ8d4apdW_I4-87" style="shape=partialRectangle;html=1;whiteSpace=wrap;connectable=0;strokeColor=inherit;overflow=hidden;fillColor=none;top=0;left=0;bottom=0;right=0;pointerEvents=1;fontSize=16;" vertex="1" parent="WxOFqhejSJ8d4apdW_I4-83">
          <mxGeometry x="121" width="42" height="25" as="geometry">
            <mxRectangle width="42" height="25" as="alternateBounds" />
          </mxGeometry>
        </mxCell>
        <mxCell id="WxOFqhejSJ8d4apdW_I4-88" value="" style="shape=tableRow;horizontal=0;startSize=0;swimlaneHead=0;swimlaneBody=0;strokeColor=inherit;top=0;left=0;bottom=0;right=0;collapsible=0;dropTarget=0;fillColor=none;points=[[0,0.5],[1,0.5]];portConstraint=eastwest;fontSize=16;" vertex="1" parent="WxOFqhejSJ8d4apdW_I4-82">
          <mxGeometry y="25" width="163" height="25" as="geometry" />
        </mxCell>
        <mxCell id="WxOFqhejSJ8d4apdW_I4-89" value="" style="shape=partialRectangle;html=1;whiteSpace=wrap;connectable=0;strokeColor=inherit;overflow=hidden;fillColor=none;top=0;left=0;bottom=0;right=0;pointerEvents=1;fontSize=16;" vertex="1" parent="WxOFqhejSJ8d4apdW_I4-88">
          <mxGeometry width="43" height="25" as="geometry">
            <mxRectangle width="43" height="25" as="alternateBounds" />
          </mxGeometry>
        </mxCell>
        <mxCell id="WxOFqhejSJ8d4apdW_I4-90" value="" style="shape=partialRectangle;html=1;whiteSpace=wrap;connectable=0;strokeColor=inherit;overflow=hidden;fillColor=none;top=0;left=0;bottom=0;right=0;pointerEvents=1;fontSize=16;" vertex="1" parent="WxOFqhejSJ8d4apdW_I4-88">
          <mxGeometry x="43" width="39" height="25" as="geometry">
            <mxRectangle width="39" height="25" as="alternateBounds" />
          </mxGeometry>
        </mxCell>
        <mxCell id="WxOFqhejSJ8d4apdW_I4-91" value="Q" style="shape=partialRectangle;html=1;whiteSpace=wrap;connectable=0;strokeColor=inherit;overflow=hidden;fillColor=none;top=0;left=0;bottom=0;right=0;pointerEvents=1;fontSize=16;" vertex="1" parent="WxOFqhejSJ8d4apdW_I4-88">
          <mxGeometry x="82" width="39" height="25" as="geometry">
            <mxRectangle width="39" height="25" as="alternateBounds" />
          </mxGeometry>
        </mxCell>
        <mxCell id="WxOFqhejSJ8d4apdW_I4-92" style="shape=partialRectangle;html=1;whiteSpace=wrap;connectable=0;strokeColor=inherit;overflow=hidden;fillColor=none;top=0;left=0;bottom=0;right=0;pointerEvents=1;fontSize=16;" vertex="1" parent="WxOFqhejSJ8d4apdW_I4-88">
          <mxGeometry x="121" width="42" height="25" as="geometry">
            <mxRectangle width="42" height="25" as="alternateBounds" />
          </mxGeometry>
        </mxCell>
        <mxCell id="WxOFqhejSJ8d4apdW_I4-93" value="" style="shape=tableRow;horizontal=0;startSize=0;swimlaneHead=0;swimlaneBody=0;strokeColor=inherit;top=0;left=0;bottom=0;right=0;collapsible=0;dropTarget=0;fillColor=none;points=[[0,0.5],[1,0.5]];portConstraint=eastwest;fontSize=16;" vertex="1" parent="WxOFqhejSJ8d4apdW_I4-82">
          <mxGeometry y="50" width="163" height="25" as="geometry" />
        </mxCell>
        <mxCell id="WxOFqhejSJ8d4apdW_I4-94" value="" style="shape=partialRectangle;html=1;whiteSpace=wrap;connectable=0;strokeColor=inherit;overflow=hidden;fillColor=none;top=0;left=0;bottom=0;right=0;pointerEvents=1;fontSize=16;" vertex="1" parent="WxOFqhejSJ8d4apdW_I4-93">
          <mxGeometry width="43" height="25" as="geometry">
            <mxRectangle width="43" height="25" as="alternateBounds" />
          </mxGeometry>
        </mxCell>
        <mxCell id="WxOFqhejSJ8d4apdW_I4-95" value="" style="shape=partialRectangle;html=1;whiteSpace=wrap;connectable=0;strokeColor=inherit;overflow=hidden;fillColor=none;top=0;left=0;bottom=0;right=0;pointerEvents=1;fontSize=16;" vertex="1" parent="WxOFqhejSJ8d4apdW_I4-93">
          <mxGeometry x="43" width="39" height="25" as="geometry">
            <mxRectangle width="39" height="25" as="alternateBounds" />
          </mxGeometry>
        </mxCell>
        <mxCell id="WxOFqhejSJ8d4apdW_I4-96" value="" style="shape=partialRectangle;html=1;whiteSpace=wrap;connectable=0;strokeColor=inherit;overflow=hidden;fillColor=none;top=0;left=0;bottom=0;right=0;pointerEvents=1;fontSize=16;" vertex="1" parent="WxOFqhejSJ8d4apdW_I4-93">
          <mxGeometry x="82" width="39" height="25" as="geometry">
            <mxRectangle width="39" height="25" as="alternateBounds" />
          </mxGeometry>
        </mxCell>
        <mxCell id="WxOFqhejSJ8d4apdW_I4-97" style="shape=partialRectangle;html=1;whiteSpace=wrap;connectable=0;strokeColor=inherit;overflow=hidden;fillColor=none;top=0;left=0;bottom=0;right=0;pointerEvents=1;fontSize=16;" vertex="1" parent="WxOFqhejSJ8d4apdW_I4-93">
          <mxGeometry x="121" width="42" height="25" as="geometry">
            <mxRectangle width="42" height="25" as="alternateBounds" />
          </mxGeometry>
        </mxCell>
        <mxCell id="WxOFqhejSJ8d4apdW_I4-98" style="shape=tableRow;horizontal=0;startSize=0;swimlaneHead=0;swimlaneBody=0;strokeColor=inherit;top=0;left=0;bottom=0;right=0;collapsible=0;dropTarget=0;fillColor=none;points=[[0,0.5],[1,0.5]];portConstraint=eastwest;fontSize=16;" vertex="1" parent="WxOFqhejSJ8d4apdW_I4-82">
          <mxGeometry y="75" width="163" height="25" as="geometry" />
        </mxCell>
        <mxCell id="WxOFqhejSJ8d4apdW_I4-99" style="shape=partialRectangle;html=1;whiteSpace=wrap;connectable=0;strokeColor=inherit;overflow=hidden;fillColor=none;top=0;left=0;bottom=0;right=0;pointerEvents=1;fontSize=16;" vertex="1" parent="WxOFqhejSJ8d4apdW_I4-98">
          <mxGeometry width="43" height="25" as="geometry">
            <mxRectangle width="43" height="25" as="alternateBounds" />
          </mxGeometry>
        </mxCell>
        <mxCell id="WxOFqhejSJ8d4apdW_I4-100" style="shape=partialRectangle;html=1;whiteSpace=wrap;connectable=0;strokeColor=inherit;overflow=hidden;fillColor=none;top=0;left=0;bottom=0;right=0;pointerEvents=1;fontSize=16;" vertex="1" parent="WxOFqhejSJ8d4apdW_I4-98">
          <mxGeometry x="43" width="39" height="25" as="geometry">
            <mxRectangle width="39" height="25" as="alternateBounds" />
          </mxGeometry>
        </mxCell>
        <mxCell id="WxOFqhejSJ8d4apdW_I4-101" style="shape=partialRectangle;html=1;whiteSpace=wrap;connectable=0;strokeColor=inherit;overflow=hidden;fillColor=none;top=0;left=0;bottom=0;right=0;pointerEvents=1;fontSize=16;" vertex="1" parent="WxOFqhejSJ8d4apdW_I4-98">
          <mxGeometry x="82" width="39" height="25" as="geometry">
            <mxRectangle width="39" height="25" as="alternateBounds" />
          </mxGeometry>
        </mxCell>
        <mxCell id="WxOFqhejSJ8d4apdW_I4-102" style="shape=partialRectangle;html=1;whiteSpace=wrap;connectable=0;strokeColor=inherit;overflow=hidden;fillColor=none;top=0;left=0;bottom=0;right=0;pointerEvents=1;fontSize=16;" vertex="1" parent="WxOFqhejSJ8d4apdW_I4-98">
          <mxGeometry x="121" width="42" height="25" as="geometry">
            <mxRectangle width="42" height="25" as="alternateBounds" />
          </mxGeometry>
        </mxCell>
        <mxCell id="WxOFqhejSJ8d4apdW_I4-103" value="2,&amp;nbsp;" style="text;html=1;strokeColor=none;fillColor=none;align=center;verticalAlign=middle;whiteSpace=wrap;rounded=0;" vertex="1" parent="1">
          <mxGeometry x="-33" y="327" width="53" height="30" as="geometry" />
        </mxCell>
        <mxCell id="WxOFqhejSJ8d4apdW_I4-104" style="edgeStyle=orthogonalEdgeStyle;rounded=0;orthogonalLoop=1;jettySize=auto;html=1;entryX=-0.012;entryY=-0.093;entryDx=0;entryDy=0;entryPerimeter=0;" edge="1" parent="1" source="WxOFqhejSJ8d4apdW_I4-103" target="WxOFqhejSJ8d4apdW_I4-70">
          <mxGeometry relative="1" as="geometry" />
        </mxCell>
        <mxCell id="WxOFqhejSJ8d4apdW_I4-105" value="backtrack" style="edgeLabel;html=1;align=center;verticalAlign=middle;resizable=0;points=[];" vertex="1" connectable="0" parent="WxOFqhejSJ8d4apdW_I4-104">
          <mxGeometry x="0.1684" y="-1" relative="1" as="geometry">
            <mxPoint as="offset" />
          </mxGeometry>
        </mxCell>
        <mxCell id="WxOFqhejSJ8d4apdW_I4-106" value="" style="shape=table;startSize=0;container=1;collapsible=0;childLayout=tableLayout;fontSize=16;" vertex="1" parent="1">
          <mxGeometry x="278" y="357" width="170" height="100" as="geometry" />
        </mxCell>
        <mxCell id="WxOFqhejSJ8d4apdW_I4-107" style="shape=tableRow;horizontal=0;startSize=0;swimlaneHead=0;swimlaneBody=0;strokeColor=inherit;top=0;left=0;bottom=0;right=0;collapsible=0;dropTarget=0;fillColor=none;points=[[0,0.5],[1,0.5]];portConstraint=eastwest;fontSize=16;" vertex="1" parent="WxOFqhejSJ8d4apdW_I4-106">
          <mxGeometry width="170" height="25" as="geometry" />
        </mxCell>
        <mxCell id="WxOFqhejSJ8d4apdW_I4-108" value="Q" style="shape=partialRectangle;html=1;whiteSpace=wrap;connectable=0;strokeColor=inherit;overflow=hidden;fillColor=none;top=0;left=0;bottom=0;right=0;pointerEvents=1;fontSize=16;" vertex="1" parent="WxOFqhejSJ8d4apdW_I4-107">
          <mxGeometry width="43" height="25" as="geometry">
            <mxRectangle width="43" height="25" as="alternateBounds" />
          </mxGeometry>
        </mxCell>
        <mxCell id="WxOFqhejSJ8d4apdW_I4-109" style="shape=partialRectangle;html=1;whiteSpace=wrap;connectable=0;strokeColor=inherit;overflow=hidden;fillColor=none;top=0;left=0;bottom=0;right=0;pointerEvents=1;fontSize=16;" vertex="1" parent="WxOFqhejSJ8d4apdW_I4-107">
          <mxGeometry x="43" width="42" height="25" as="geometry">
            <mxRectangle width="42" height="25" as="alternateBounds" />
          </mxGeometry>
        </mxCell>
        <mxCell id="WxOFqhejSJ8d4apdW_I4-110" style="shape=partialRectangle;html=1;whiteSpace=wrap;connectable=0;strokeColor=inherit;overflow=hidden;fillColor=none;top=0;left=0;bottom=0;right=0;pointerEvents=1;fontSize=16;" vertex="1" parent="WxOFqhejSJ8d4apdW_I4-107">
          <mxGeometry x="85" width="43" height="25" as="geometry">
            <mxRectangle width="43" height="25" as="alternateBounds" />
          </mxGeometry>
        </mxCell>
        <mxCell id="WxOFqhejSJ8d4apdW_I4-111" style="shape=partialRectangle;html=1;whiteSpace=wrap;connectable=0;strokeColor=inherit;overflow=hidden;fillColor=none;top=0;left=0;bottom=0;right=0;pointerEvents=1;fontSize=16;" vertex="1" parent="WxOFqhejSJ8d4apdW_I4-107">
          <mxGeometry x="128" width="42" height="25" as="geometry">
            <mxRectangle width="42" height="25" as="alternateBounds" />
          </mxGeometry>
        </mxCell>
        <mxCell id="WxOFqhejSJ8d4apdW_I4-112" value="" style="shape=tableRow;horizontal=0;startSize=0;swimlaneHead=0;swimlaneBody=0;strokeColor=inherit;top=0;left=0;bottom=0;right=0;collapsible=0;dropTarget=0;fillColor=none;points=[[0,0.5],[1,0.5]];portConstraint=eastwest;fontSize=16;" vertex="1" parent="WxOFqhejSJ8d4apdW_I4-106">
          <mxGeometry y="25" width="170" height="25" as="geometry" />
        </mxCell>
        <mxCell id="WxOFqhejSJ8d4apdW_I4-113" value="" style="shape=partialRectangle;html=1;whiteSpace=wrap;connectable=0;strokeColor=inherit;overflow=hidden;fillColor=none;top=0;left=0;bottom=0;right=0;pointerEvents=1;fontSize=16;" vertex="1" parent="WxOFqhejSJ8d4apdW_I4-112">
          <mxGeometry width="43" height="25" as="geometry">
            <mxRectangle width="43" height="25" as="alternateBounds" />
          </mxGeometry>
        </mxCell>
        <mxCell id="WxOFqhejSJ8d4apdW_I4-114" value="" style="shape=partialRectangle;html=1;whiteSpace=wrap;connectable=0;strokeColor=inherit;overflow=hidden;fillColor=none;top=0;left=0;bottom=0;right=0;pointerEvents=1;fontSize=16;" vertex="1" parent="WxOFqhejSJ8d4apdW_I4-112">
          <mxGeometry x="43" width="42" height="25" as="geometry">
            <mxRectangle width="42" height="25" as="alternateBounds" />
          </mxGeometry>
        </mxCell>
        <mxCell id="WxOFqhejSJ8d4apdW_I4-115" value="" style="shape=partialRectangle;html=1;whiteSpace=wrap;connectable=0;strokeColor=inherit;overflow=hidden;fillColor=none;top=0;left=0;bottom=0;right=0;pointerEvents=1;fontSize=16;" vertex="1" parent="WxOFqhejSJ8d4apdW_I4-112">
          <mxGeometry x="85" width="43" height="25" as="geometry">
            <mxRectangle width="43" height="25" as="alternateBounds" />
          </mxGeometry>
        </mxCell>
        <mxCell id="WxOFqhejSJ8d4apdW_I4-116" value="Q" style="shape=partialRectangle;html=1;whiteSpace=wrap;connectable=0;strokeColor=inherit;overflow=hidden;fillColor=none;top=0;left=0;bottom=0;right=0;pointerEvents=1;fontSize=16;" vertex="1" parent="WxOFqhejSJ8d4apdW_I4-112">
          <mxGeometry x="128" width="42" height="25" as="geometry">
            <mxRectangle width="42" height="25" as="alternateBounds" />
          </mxGeometry>
        </mxCell>
        <mxCell id="WxOFqhejSJ8d4apdW_I4-117" value="" style="shape=tableRow;horizontal=0;startSize=0;swimlaneHead=0;swimlaneBody=0;strokeColor=inherit;top=0;left=0;bottom=0;right=0;collapsible=0;dropTarget=0;fillColor=none;points=[[0,0.5],[1,0.5]];portConstraint=eastwest;fontSize=16;" vertex="1" parent="WxOFqhejSJ8d4apdW_I4-106">
          <mxGeometry y="50" width="170" height="25" as="geometry" />
        </mxCell>
        <mxCell id="WxOFqhejSJ8d4apdW_I4-118" value="" style="shape=partialRectangle;html=1;whiteSpace=wrap;connectable=0;strokeColor=inherit;overflow=hidden;fillColor=none;top=0;left=0;bottom=0;right=0;pointerEvents=1;fontSize=16;" vertex="1" parent="WxOFqhejSJ8d4apdW_I4-117">
          <mxGeometry width="43" height="25" as="geometry">
            <mxRectangle width="43" height="25" as="alternateBounds" />
          </mxGeometry>
        </mxCell>
        <mxCell id="WxOFqhejSJ8d4apdW_I4-119" value="" style="shape=partialRectangle;html=1;whiteSpace=wrap;connectable=0;strokeColor=inherit;overflow=hidden;fillColor=none;top=0;left=0;bottom=0;right=0;pointerEvents=1;fontSize=16;" vertex="1" parent="WxOFqhejSJ8d4apdW_I4-117">
          <mxGeometry x="43" width="42" height="25" as="geometry">
            <mxRectangle width="42" height="25" as="alternateBounds" />
          </mxGeometry>
        </mxCell>
        <mxCell id="WxOFqhejSJ8d4apdW_I4-120" value="" style="shape=partialRectangle;html=1;whiteSpace=wrap;connectable=0;strokeColor=inherit;overflow=hidden;fillColor=none;top=0;left=0;bottom=0;right=0;pointerEvents=1;fontSize=16;" vertex="1" parent="WxOFqhejSJ8d4apdW_I4-117">
          <mxGeometry x="85" width="43" height="25" as="geometry">
            <mxRectangle width="43" height="25" as="alternateBounds" />
          </mxGeometry>
        </mxCell>
        <mxCell id="WxOFqhejSJ8d4apdW_I4-121" style="shape=partialRectangle;html=1;whiteSpace=wrap;connectable=0;strokeColor=inherit;overflow=hidden;fillColor=none;top=0;left=0;bottom=0;right=0;pointerEvents=1;fontSize=16;" vertex="1" parent="WxOFqhejSJ8d4apdW_I4-117">
          <mxGeometry x="128" width="42" height="25" as="geometry">
            <mxRectangle width="42" height="25" as="alternateBounds" />
          </mxGeometry>
        </mxCell>
        <mxCell id="WxOFqhejSJ8d4apdW_I4-122" style="shape=tableRow;horizontal=0;startSize=0;swimlaneHead=0;swimlaneBody=0;strokeColor=inherit;top=0;left=0;bottom=0;right=0;collapsible=0;dropTarget=0;fillColor=none;points=[[0,0.5],[1,0.5]];portConstraint=eastwest;fontSize=16;" vertex="1" parent="WxOFqhejSJ8d4apdW_I4-106">
          <mxGeometry y="75" width="170" height="25" as="geometry" />
        </mxCell>
        <mxCell id="WxOFqhejSJ8d4apdW_I4-123" style="shape=partialRectangle;html=1;whiteSpace=wrap;connectable=0;strokeColor=inherit;overflow=hidden;fillColor=none;top=0;left=0;bottom=0;right=0;pointerEvents=1;fontSize=16;" vertex="1" parent="WxOFqhejSJ8d4apdW_I4-122">
          <mxGeometry width="43" height="25" as="geometry">
            <mxRectangle width="43" height="25" as="alternateBounds" />
          </mxGeometry>
        </mxCell>
        <mxCell id="WxOFqhejSJ8d4apdW_I4-124" style="shape=partialRectangle;html=1;whiteSpace=wrap;connectable=0;strokeColor=inherit;overflow=hidden;fillColor=none;top=0;left=0;bottom=0;right=0;pointerEvents=1;fontSize=16;" vertex="1" parent="WxOFqhejSJ8d4apdW_I4-122">
          <mxGeometry x="43" width="42" height="25" as="geometry">
            <mxRectangle width="42" height="25" as="alternateBounds" />
          </mxGeometry>
        </mxCell>
        <mxCell id="WxOFqhejSJ8d4apdW_I4-125" style="shape=partialRectangle;html=1;whiteSpace=wrap;connectable=0;strokeColor=inherit;overflow=hidden;fillColor=none;top=0;left=0;bottom=0;right=0;pointerEvents=1;fontSize=16;" vertex="1" parent="WxOFqhejSJ8d4apdW_I4-122">
          <mxGeometry x="85" width="43" height="25" as="geometry">
            <mxRectangle width="43" height="25" as="alternateBounds" />
          </mxGeometry>
        </mxCell>
        <mxCell id="WxOFqhejSJ8d4apdW_I4-126" style="shape=partialRectangle;html=1;whiteSpace=wrap;connectable=0;strokeColor=inherit;overflow=hidden;fillColor=none;top=0;left=0;bottom=0;right=0;pointerEvents=1;fontSize=16;" vertex="1" parent="WxOFqhejSJ8d4apdW_I4-122">
          <mxGeometry x="128" width="42" height="25" as="geometry">
            <mxRectangle width="42" height="25" as="alternateBounds" />
          </mxGeometry>
        </mxCell>
        <mxCell id="WxOFqhejSJ8d4apdW_I4-127" value="1, 3" style="text;html=1;strokeColor=none;fillColor=none;align=center;verticalAlign=middle;whiteSpace=wrap;rounded=0;" vertex="1" parent="1">
          <mxGeometry x="310" y="327" width="60" height="30" as="geometry" />
        </mxCell>
        <mxCell id="WxOFqhejSJ8d4apdW_I4-128" value="" style="shape=table;startSize=0;container=1;collapsible=0;childLayout=tableLayout;fontSize=16;" vertex="1" parent="1">
          <mxGeometry x="365" y="560" width="170" height="100" as="geometry" />
        </mxCell>
        <mxCell id="WxOFqhejSJ8d4apdW_I4-129" style="shape=tableRow;horizontal=0;startSize=0;swimlaneHead=0;swimlaneBody=0;strokeColor=inherit;top=0;left=0;bottom=0;right=0;collapsible=0;dropTarget=0;fillColor=none;points=[[0,0.5],[1,0.5]];portConstraint=eastwest;fontSize=16;" vertex="1" parent="WxOFqhejSJ8d4apdW_I4-128">
          <mxGeometry width="170" height="25" as="geometry" />
        </mxCell>
        <mxCell id="WxOFqhejSJ8d4apdW_I4-130" value="Q" style="shape=partialRectangle;html=1;whiteSpace=wrap;connectable=0;strokeColor=inherit;overflow=hidden;fillColor=none;top=0;left=0;bottom=0;right=0;pointerEvents=1;fontSize=16;" vertex="1" parent="WxOFqhejSJ8d4apdW_I4-129">
          <mxGeometry width="43" height="25" as="geometry">
            <mxRectangle width="43" height="25" as="alternateBounds" />
          </mxGeometry>
        </mxCell>
        <mxCell id="WxOFqhejSJ8d4apdW_I4-131" style="shape=partialRectangle;html=1;whiteSpace=wrap;connectable=0;strokeColor=inherit;overflow=hidden;fillColor=none;top=0;left=0;bottom=0;right=0;pointerEvents=1;fontSize=16;" vertex="1" parent="WxOFqhejSJ8d4apdW_I4-129">
          <mxGeometry x="43" width="42" height="25" as="geometry">
            <mxRectangle width="42" height="25" as="alternateBounds" />
          </mxGeometry>
        </mxCell>
        <mxCell id="WxOFqhejSJ8d4apdW_I4-132" style="shape=partialRectangle;html=1;whiteSpace=wrap;connectable=0;strokeColor=inherit;overflow=hidden;fillColor=none;top=0;left=0;bottom=0;right=0;pointerEvents=1;fontSize=16;" vertex="1" parent="WxOFqhejSJ8d4apdW_I4-129">
          <mxGeometry x="85" width="43" height="25" as="geometry">
            <mxRectangle width="43" height="25" as="alternateBounds" />
          </mxGeometry>
        </mxCell>
        <mxCell id="WxOFqhejSJ8d4apdW_I4-133" style="shape=partialRectangle;html=1;whiteSpace=wrap;connectable=0;strokeColor=inherit;overflow=hidden;fillColor=none;top=0;left=0;bottom=0;right=0;pointerEvents=1;fontSize=16;" vertex="1" parent="WxOFqhejSJ8d4apdW_I4-129">
          <mxGeometry x="128" width="42" height="25" as="geometry">
            <mxRectangle width="42" height="25" as="alternateBounds" />
          </mxGeometry>
        </mxCell>
        <mxCell id="WxOFqhejSJ8d4apdW_I4-134" value="" style="shape=tableRow;horizontal=0;startSize=0;swimlaneHead=0;swimlaneBody=0;strokeColor=inherit;top=0;left=0;bottom=0;right=0;collapsible=0;dropTarget=0;fillColor=none;points=[[0,0.5],[1,0.5]];portConstraint=eastwest;fontSize=16;" vertex="1" parent="WxOFqhejSJ8d4apdW_I4-128">
          <mxGeometry y="25" width="170" height="25" as="geometry" />
        </mxCell>
        <mxCell id="WxOFqhejSJ8d4apdW_I4-135" value="" style="shape=partialRectangle;html=1;whiteSpace=wrap;connectable=0;strokeColor=inherit;overflow=hidden;fillColor=none;top=0;left=0;bottom=0;right=0;pointerEvents=1;fontSize=16;" vertex="1" parent="WxOFqhejSJ8d4apdW_I4-134">
          <mxGeometry width="43" height="25" as="geometry">
            <mxRectangle width="43" height="25" as="alternateBounds" />
          </mxGeometry>
        </mxCell>
        <mxCell id="WxOFqhejSJ8d4apdW_I4-136" value="" style="shape=partialRectangle;html=1;whiteSpace=wrap;connectable=0;strokeColor=inherit;overflow=hidden;fillColor=none;top=0;left=0;bottom=0;right=0;pointerEvents=1;fontSize=16;" vertex="1" parent="WxOFqhejSJ8d4apdW_I4-134">
          <mxGeometry x="43" width="42" height="25" as="geometry">
            <mxRectangle width="42" height="25" as="alternateBounds" />
          </mxGeometry>
        </mxCell>
        <mxCell id="WxOFqhejSJ8d4apdW_I4-137" value="" style="shape=partialRectangle;html=1;whiteSpace=wrap;connectable=0;strokeColor=inherit;overflow=hidden;fillColor=none;top=0;left=0;bottom=0;right=0;pointerEvents=1;fontSize=16;" vertex="1" parent="WxOFqhejSJ8d4apdW_I4-134">
          <mxGeometry x="85" width="43" height="25" as="geometry">
            <mxRectangle width="43" height="25" as="alternateBounds" />
          </mxGeometry>
        </mxCell>
        <mxCell id="WxOFqhejSJ8d4apdW_I4-138" value="Q" style="shape=partialRectangle;html=1;whiteSpace=wrap;connectable=0;strokeColor=inherit;overflow=hidden;fillColor=none;top=0;left=0;bottom=0;right=0;pointerEvents=1;fontSize=16;" vertex="1" parent="WxOFqhejSJ8d4apdW_I4-134">
          <mxGeometry x="128" width="42" height="25" as="geometry">
            <mxRectangle width="42" height="25" as="alternateBounds" />
          </mxGeometry>
        </mxCell>
        <mxCell id="WxOFqhejSJ8d4apdW_I4-139" value="" style="shape=tableRow;horizontal=0;startSize=0;swimlaneHead=0;swimlaneBody=0;strokeColor=inherit;top=0;left=0;bottom=0;right=0;collapsible=0;dropTarget=0;fillColor=none;points=[[0,0.5],[1,0.5]];portConstraint=eastwest;fontSize=16;" vertex="1" parent="WxOFqhejSJ8d4apdW_I4-128">
          <mxGeometry y="50" width="170" height="25" as="geometry" />
        </mxCell>
        <mxCell id="WxOFqhejSJ8d4apdW_I4-140" value="" style="shape=partialRectangle;html=1;whiteSpace=wrap;connectable=0;strokeColor=inherit;overflow=hidden;fillColor=none;top=0;left=0;bottom=0;right=0;pointerEvents=1;fontSize=16;" vertex="1" parent="WxOFqhejSJ8d4apdW_I4-139">
          <mxGeometry width="43" height="25" as="geometry">
            <mxRectangle width="43" height="25" as="alternateBounds" />
          </mxGeometry>
        </mxCell>
        <mxCell id="WxOFqhejSJ8d4apdW_I4-141" value="Q" style="shape=partialRectangle;html=1;whiteSpace=wrap;connectable=0;strokeColor=inherit;overflow=hidden;fillColor=none;top=0;left=0;bottom=0;right=0;pointerEvents=1;fontSize=16;" vertex="1" parent="WxOFqhejSJ8d4apdW_I4-139">
          <mxGeometry x="43" width="42" height="25" as="geometry">
            <mxRectangle width="42" height="25" as="alternateBounds" />
          </mxGeometry>
        </mxCell>
        <mxCell id="WxOFqhejSJ8d4apdW_I4-142" value="" style="shape=partialRectangle;html=1;whiteSpace=wrap;connectable=0;strokeColor=inherit;overflow=hidden;fillColor=none;top=0;left=0;bottom=0;right=0;pointerEvents=1;fontSize=16;" vertex="1" parent="WxOFqhejSJ8d4apdW_I4-139">
          <mxGeometry x="85" width="43" height="25" as="geometry">
            <mxRectangle width="43" height="25" as="alternateBounds" />
          </mxGeometry>
        </mxCell>
        <mxCell id="WxOFqhejSJ8d4apdW_I4-143" style="shape=partialRectangle;html=1;whiteSpace=wrap;connectable=0;strokeColor=inherit;overflow=hidden;fillColor=none;top=0;left=0;bottom=0;right=0;pointerEvents=1;fontSize=16;" vertex="1" parent="WxOFqhejSJ8d4apdW_I4-139">
          <mxGeometry x="128" width="42" height="25" as="geometry">
            <mxRectangle width="42" height="25" as="alternateBounds" />
          </mxGeometry>
        </mxCell>
        <mxCell id="WxOFqhejSJ8d4apdW_I4-144" style="shape=tableRow;horizontal=0;startSize=0;swimlaneHead=0;swimlaneBody=0;strokeColor=inherit;top=0;left=0;bottom=0;right=0;collapsible=0;dropTarget=0;fillColor=none;points=[[0,0.5],[1,0.5]];portConstraint=eastwest;fontSize=16;" vertex="1" parent="WxOFqhejSJ8d4apdW_I4-128">
          <mxGeometry y="75" width="170" height="25" as="geometry" />
        </mxCell>
        <mxCell id="WxOFqhejSJ8d4apdW_I4-145" style="shape=partialRectangle;html=1;whiteSpace=wrap;connectable=0;strokeColor=inherit;overflow=hidden;fillColor=none;top=0;left=0;bottom=0;right=0;pointerEvents=1;fontSize=16;" vertex="1" parent="WxOFqhejSJ8d4apdW_I4-144">
          <mxGeometry width="43" height="25" as="geometry">
            <mxRectangle width="43" height="25" as="alternateBounds" />
          </mxGeometry>
        </mxCell>
        <mxCell id="WxOFqhejSJ8d4apdW_I4-146" style="shape=partialRectangle;html=1;whiteSpace=wrap;connectable=0;strokeColor=inherit;overflow=hidden;fillColor=none;top=0;left=0;bottom=0;right=0;pointerEvents=1;fontSize=16;" vertex="1" parent="WxOFqhejSJ8d4apdW_I4-144">
          <mxGeometry x="43" width="42" height="25" as="geometry">
            <mxRectangle width="42" height="25" as="alternateBounds" />
          </mxGeometry>
        </mxCell>
        <mxCell id="WxOFqhejSJ8d4apdW_I4-147" style="shape=partialRectangle;html=1;whiteSpace=wrap;connectable=0;strokeColor=inherit;overflow=hidden;fillColor=none;top=0;left=0;bottom=0;right=0;pointerEvents=1;fontSize=16;" vertex="1" parent="WxOFqhejSJ8d4apdW_I4-144">
          <mxGeometry x="85" width="43" height="25" as="geometry">
            <mxRectangle width="43" height="25" as="alternateBounds" />
          </mxGeometry>
        </mxCell>
        <mxCell id="WxOFqhejSJ8d4apdW_I4-148" style="shape=partialRectangle;html=1;whiteSpace=wrap;connectable=0;strokeColor=inherit;overflow=hidden;fillColor=none;top=0;left=0;bottom=0;right=0;pointerEvents=1;fontSize=16;" vertex="1" parent="WxOFqhejSJ8d4apdW_I4-144">
          <mxGeometry x="128" width="42" height="25" as="geometry">
            <mxRectangle width="42" height="25" as="alternateBounds" />
          </mxGeometry>
        </mxCell>
        <mxCell id="WxOFqhejSJ8d4apdW_I4-149" value="3,&amp;nbsp;" style="text;html=1;strokeColor=none;fillColor=none;align=center;verticalAlign=middle;whiteSpace=wrap;rounded=0;" vertex="1" parent="1">
          <mxGeometry x="430" y="710" width="60" height="30" as="geometry" />
        </mxCell>
        <mxCell id="WxOFqhejSJ8d4apdW_I4-150" value="" style="endArrow=classic;html=1;rounded=0;exitX=0.447;exitY=1.013;exitDx=0;exitDy=0;exitPerimeter=0;entryX=-0.027;entryY=0.28;entryDx=0;entryDy=0;entryPerimeter=0;" edge="1" parent="1" source="WxOFqhejSJ8d4apdW_I4-75" target="WxOFqhejSJ8d4apdW_I4-117">
          <mxGeometry width="50" height="50" relative="1" as="geometry">
            <mxPoint x="170" y="470" as="sourcePoint" />
            <mxPoint x="220" y="420" as="targetPoint" />
          </mxGeometry>
        </mxCell>
        <mxCell id="WxOFqhejSJ8d4apdW_I4-153" value="" style="endArrow=classic;html=1;rounded=0;exitX=0.188;exitY=1.307;exitDx=0;exitDy=0;exitPerimeter=0;entryX=0;entryY=0.5;entryDx=0;entryDy=0;" edge="1" parent="1" source="WxOFqhejSJ8d4apdW_I4-122" target="WxOFqhejSJ8d4apdW_I4-139">
          <mxGeometry width="50" height="50" relative="1" as="geometry">
            <mxPoint x="224" y="297" as="sourcePoint" />
            <mxPoint x="283" y="424" as="targetPoint" />
          </mxGeometry>
        </mxCell>
        <mxCell id="WxOFqhejSJ8d4apdW_I4-154" value="" style="shape=table;startSize=0;container=1;collapsible=0;childLayout=tableLayout;fontSize=16;" vertex="1" parent="1">
          <mxGeometry x="405" y="740" width="170" height="100" as="geometry" />
        </mxCell>
        <mxCell id="WxOFqhejSJ8d4apdW_I4-155" style="shape=tableRow;horizontal=0;startSize=0;swimlaneHead=0;swimlaneBody=0;strokeColor=inherit;top=0;left=0;bottom=0;right=0;collapsible=0;dropTarget=0;fillColor=none;points=[[0,0.5],[1,0.5]];portConstraint=eastwest;fontSize=16;" vertex="1" parent="WxOFqhejSJ8d4apdW_I4-154">
          <mxGeometry width="170" height="25" as="geometry" />
        </mxCell>
        <mxCell id="WxOFqhejSJ8d4apdW_I4-156" value="Q" style="shape=partialRectangle;html=1;whiteSpace=wrap;connectable=0;strokeColor=inherit;overflow=hidden;fillColor=none;top=0;left=0;bottom=0;right=0;pointerEvents=1;fontSize=16;" vertex="1" parent="WxOFqhejSJ8d4apdW_I4-155">
          <mxGeometry width="43" height="25" as="geometry">
            <mxRectangle width="43" height="25" as="alternateBounds" />
          </mxGeometry>
        </mxCell>
        <mxCell id="WxOFqhejSJ8d4apdW_I4-157" style="shape=partialRectangle;html=1;whiteSpace=wrap;connectable=0;strokeColor=inherit;overflow=hidden;fillColor=none;top=0;left=0;bottom=0;right=0;pointerEvents=1;fontSize=16;" vertex="1" parent="WxOFqhejSJ8d4apdW_I4-155">
          <mxGeometry x="43" width="42" height="25" as="geometry">
            <mxRectangle width="42" height="25" as="alternateBounds" />
          </mxGeometry>
        </mxCell>
        <mxCell id="WxOFqhejSJ8d4apdW_I4-158" style="shape=partialRectangle;html=1;whiteSpace=wrap;connectable=0;strokeColor=inherit;overflow=hidden;fillColor=none;top=0;left=0;bottom=0;right=0;pointerEvents=1;fontSize=16;" vertex="1" parent="WxOFqhejSJ8d4apdW_I4-155">
          <mxGeometry x="85" width="43" height="25" as="geometry">
            <mxRectangle width="43" height="25" as="alternateBounds" />
          </mxGeometry>
        </mxCell>
        <mxCell id="WxOFqhejSJ8d4apdW_I4-159" style="shape=partialRectangle;html=1;whiteSpace=wrap;connectable=0;strokeColor=inherit;overflow=hidden;fillColor=none;top=0;left=0;bottom=0;right=0;pointerEvents=1;fontSize=16;" vertex="1" parent="WxOFqhejSJ8d4apdW_I4-155">
          <mxGeometry x="128" width="42" height="25" as="geometry">
            <mxRectangle width="42" height="25" as="alternateBounds" />
          </mxGeometry>
        </mxCell>
        <mxCell id="WxOFqhejSJ8d4apdW_I4-160" value="" style="shape=tableRow;horizontal=0;startSize=0;swimlaneHead=0;swimlaneBody=0;strokeColor=inherit;top=0;left=0;bottom=0;right=0;collapsible=0;dropTarget=0;fillColor=none;points=[[0,0.5],[1,0.5]];portConstraint=eastwest;fontSize=16;" vertex="1" parent="WxOFqhejSJ8d4apdW_I4-154">
          <mxGeometry y="25" width="170" height="25" as="geometry" />
        </mxCell>
        <mxCell id="WxOFqhejSJ8d4apdW_I4-161" value="" style="shape=partialRectangle;html=1;whiteSpace=wrap;connectable=0;strokeColor=inherit;overflow=hidden;fillColor=none;top=0;left=0;bottom=0;right=0;pointerEvents=1;fontSize=16;" vertex="1" parent="WxOFqhejSJ8d4apdW_I4-160">
          <mxGeometry width="43" height="25" as="geometry">
            <mxRectangle width="43" height="25" as="alternateBounds" />
          </mxGeometry>
        </mxCell>
        <mxCell id="WxOFqhejSJ8d4apdW_I4-162" value="" style="shape=partialRectangle;html=1;whiteSpace=wrap;connectable=0;strokeColor=inherit;overflow=hidden;fillColor=none;top=0;left=0;bottom=0;right=0;pointerEvents=1;fontSize=16;" vertex="1" parent="WxOFqhejSJ8d4apdW_I4-160">
          <mxGeometry x="43" width="42" height="25" as="geometry">
            <mxRectangle width="42" height="25" as="alternateBounds" />
          </mxGeometry>
        </mxCell>
        <mxCell id="WxOFqhejSJ8d4apdW_I4-163" value="" style="shape=partialRectangle;html=1;whiteSpace=wrap;connectable=0;strokeColor=inherit;overflow=hidden;fillColor=none;top=0;left=0;bottom=0;right=0;pointerEvents=1;fontSize=16;" vertex="1" parent="WxOFqhejSJ8d4apdW_I4-160">
          <mxGeometry x="85" width="43" height="25" as="geometry">
            <mxRectangle width="43" height="25" as="alternateBounds" />
          </mxGeometry>
        </mxCell>
        <mxCell id="WxOFqhejSJ8d4apdW_I4-164" value="Q" style="shape=partialRectangle;html=1;whiteSpace=wrap;connectable=0;strokeColor=inherit;overflow=hidden;fillColor=none;top=0;left=0;bottom=0;right=0;pointerEvents=1;fontSize=16;" vertex="1" parent="WxOFqhejSJ8d4apdW_I4-160">
          <mxGeometry x="128" width="42" height="25" as="geometry">
            <mxRectangle width="42" height="25" as="alternateBounds" />
          </mxGeometry>
        </mxCell>
        <mxCell id="WxOFqhejSJ8d4apdW_I4-165" value="" style="shape=tableRow;horizontal=0;startSize=0;swimlaneHead=0;swimlaneBody=0;strokeColor=inherit;top=0;left=0;bottom=0;right=0;collapsible=0;dropTarget=0;fillColor=none;points=[[0,0.5],[1,0.5]];portConstraint=eastwest;fontSize=16;" vertex="1" parent="WxOFqhejSJ8d4apdW_I4-154">
          <mxGeometry y="50" width="170" height="25" as="geometry" />
        </mxCell>
        <mxCell id="WxOFqhejSJ8d4apdW_I4-166" value="" style="shape=partialRectangle;html=1;whiteSpace=wrap;connectable=0;strokeColor=inherit;overflow=hidden;fillColor=none;top=0;left=0;bottom=0;right=0;pointerEvents=1;fontSize=16;" vertex="1" parent="WxOFqhejSJ8d4apdW_I4-165">
          <mxGeometry width="43" height="25" as="geometry">
            <mxRectangle width="43" height="25" as="alternateBounds" />
          </mxGeometry>
        </mxCell>
        <mxCell id="WxOFqhejSJ8d4apdW_I4-167" value="Q" style="shape=partialRectangle;html=1;whiteSpace=wrap;connectable=0;strokeColor=inherit;overflow=hidden;fillColor=none;top=0;left=0;bottom=0;right=0;pointerEvents=1;fontSize=16;" vertex="1" parent="WxOFqhejSJ8d4apdW_I4-165">
          <mxGeometry x="43" width="42" height="25" as="geometry">
            <mxRectangle width="42" height="25" as="alternateBounds" />
          </mxGeometry>
        </mxCell>
        <mxCell id="WxOFqhejSJ8d4apdW_I4-168" value="" style="shape=partialRectangle;html=1;whiteSpace=wrap;connectable=0;strokeColor=inherit;overflow=hidden;fillColor=none;top=0;left=0;bottom=0;right=0;pointerEvents=1;fontSize=16;" vertex="1" parent="WxOFqhejSJ8d4apdW_I4-165">
          <mxGeometry x="85" width="43" height="25" as="geometry">
            <mxRectangle width="43" height="25" as="alternateBounds" />
          </mxGeometry>
        </mxCell>
        <mxCell id="WxOFqhejSJ8d4apdW_I4-169" style="shape=partialRectangle;html=1;whiteSpace=wrap;connectable=0;strokeColor=inherit;overflow=hidden;fillColor=none;top=0;left=0;bottom=0;right=0;pointerEvents=1;fontSize=16;" vertex="1" parent="WxOFqhejSJ8d4apdW_I4-165">
          <mxGeometry x="128" width="42" height="25" as="geometry">
            <mxRectangle width="42" height="25" as="alternateBounds" />
          </mxGeometry>
        </mxCell>
        <mxCell id="WxOFqhejSJ8d4apdW_I4-170" style="shape=tableRow;horizontal=0;startSize=0;swimlaneHead=0;swimlaneBody=0;strokeColor=inherit;top=0;left=0;bottom=0;right=0;collapsible=0;dropTarget=0;fillColor=none;points=[[0,0.5],[1,0.5]];portConstraint=eastwest;fontSize=16;" vertex="1" parent="WxOFqhejSJ8d4apdW_I4-154">
          <mxGeometry y="75" width="170" height="25" as="geometry" />
        </mxCell>
        <mxCell id="WxOFqhejSJ8d4apdW_I4-171" style="shape=partialRectangle;html=1;whiteSpace=wrap;connectable=0;strokeColor=inherit;overflow=hidden;fillColor=none;top=0;left=0;bottom=0;right=0;pointerEvents=1;fontSize=16;" vertex="1" parent="WxOFqhejSJ8d4apdW_I4-170">
          <mxGeometry width="43" height="25" as="geometry">
            <mxRectangle width="43" height="25" as="alternateBounds" />
          </mxGeometry>
        </mxCell>
        <mxCell id="WxOFqhejSJ8d4apdW_I4-172" style="shape=partialRectangle;html=1;whiteSpace=wrap;connectable=0;strokeColor=inherit;overflow=hidden;fillColor=none;top=0;left=0;bottom=0;right=0;pointerEvents=1;fontSize=16;" vertex="1" parent="WxOFqhejSJ8d4apdW_I4-170">
          <mxGeometry x="43" width="42" height="25" as="geometry">
            <mxRectangle width="42" height="25" as="alternateBounds" />
          </mxGeometry>
        </mxCell>
        <mxCell id="WxOFqhejSJ8d4apdW_I4-173" style="shape=partialRectangle;html=1;whiteSpace=wrap;connectable=0;strokeColor=inherit;overflow=hidden;fillColor=none;top=0;left=0;bottom=0;right=0;pointerEvents=1;fontSize=16;" vertex="1" parent="WxOFqhejSJ8d4apdW_I4-170">
          <mxGeometry x="85" width="43" height="25" as="geometry">
            <mxRectangle width="43" height="25" as="alternateBounds" />
          </mxGeometry>
        </mxCell>
        <mxCell id="WxOFqhejSJ8d4apdW_I4-174" style="shape=partialRectangle;html=1;whiteSpace=wrap;connectable=0;strokeColor=inherit;overflow=hidden;fillColor=none;top=0;left=0;bottom=0;right=0;pointerEvents=1;fontSize=16;" vertex="1" parent="WxOFqhejSJ8d4apdW_I4-170">
          <mxGeometry x="128" width="42" height="25" as="geometry">
            <mxRectangle width="42" height="25" as="alternateBounds" />
          </mxGeometry>
        </mxCell>
        <mxCell id="WxOFqhejSJ8d4apdW_I4-176" value="" style="endArrow=classic;html=1;rounded=0;exitX=0.061;exitY=1.053;exitDx=0;exitDy=0;exitPerimeter=0;entryX=-0.029;entryY=0;entryDx=0;entryDy=0;entryPerimeter=0;" edge="1" parent="1" source="WxOFqhejSJ8d4apdW_I4-144" target="WxOFqhejSJ8d4apdW_I4-165">
          <mxGeometry width="50" height="50" relative="1" as="geometry">
            <mxPoint x="320" y="475" as="sourcePoint" />
            <mxPoint x="375" y="633" as="targetPoint" />
          </mxGeometry>
        </mxCell>
        <mxCell id="WxOFqhejSJ8d4apdW_I4-178" value="2, 1" style="text;html=1;strokeColor=none;fillColor=none;align=center;verticalAlign=middle;whiteSpace=wrap;rounded=0;" vertex="1" parent="1">
          <mxGeometry x="395" y="520" width="60" height="30" as="geometry" />
        </mxCell>
        <mxCell id="WxOFqhejSJ8d4apdW_I4-180" style="edgeStyle=orthogonalEdgeStyle;rounded=0;orthogonalLoop=1;jettySize=auto;html=1;entryX=1;entryY=0.5;entryDx=0;entryDy=0;exitX=1;exitY=0.5;exitDx=0;exitDy=0;" edge="1" parent="1" source="WxOFqhejSJ8d4apdW_I4-170" target="WxOFqhejSJ8d4apdW_I4-139">
          <mxGeometry relative="1" as="geometry" />
        </mxCell>
        <mxCell id="WxOFqhejSJ8d4apdW_I4-181" value="backtrack" style="edgeLabel;html=1;align=center;verticalAlign=middle;resizable=0;points=[];" vertex="1" connectable="0" parent="WxOFqhejSJ8d4apdW_I4-180">
          <mxGeometry x="0.1357" y="3" relative="1" as="geometry">
            <mxPoint as="offset" />
          </mxGeometry>
        </mxCell>
        <mxCell id="WxOFqhejSJ8d4apdW_I4-182" style="edgeStyle=orthogonalEdgeStyle;rounded=0;orthogonalLoop=1;jettySize=auto;html=1;entryX=1;entryY=0.5;entryDx=0;entryDy=0;exitX=1;exitY=0.5;exitDx=0;exitDy=0;" edge="1" parent="1" source="WxOFqhejSJ8d4apdW_I4-129" target="WxOFqhejSJ8d4apdW_I4-122">
          <mxGeometry relative="1" as="geometry">
            <mxPoint x="585" y="838" as="sourcePoint" />
            <mxPoint x="545" y="633" as="targetPoint" />
          </mxGeometry>
        </mxCell>
        <mxCell id="WxOFqhejSJ8d4apdW_I4-183" value="backtrack" style="edgeLabel;html=1;align=center;verticalAlign=middle;resizable=0;points=[];" vertex="1" connectable="0" parent="WxOFqhejSJ8d4apdW_I4-182">
          <mxGeometry x="0.1357" y="3" relative="1" as="geometry">
            <mxPoint as="offset" />
          </mxGeometry>
        </mxCell>
        <mxCell id="WxOFqhejSJ8d4apdW_I4-184" style="edgeStyle=orthogonalEdgeStyle;rounded=0;orthogonalLoop=1;jettySize=auto;html=1;entryX=0.62;entryY=1.24;entryDx=0;entryDy=0;exitX=1;exitY=0.5;exitDx=0;exitDy=0;entryPerimeter=0;" edge="1" parent="1" source="WxOFqhejSJ8d4apdW_I4-107" target="WxOFqhejSJ8d4apdW_I4-21">
          <mxGeometry relative="1" as="geometry">
            <mxPoint x="545" y="583" as="sourcePoint" />
            <mxPoint x="458" y="455" as="targetPoint" />
            <Array as="points">
              <mxPoint x="468" y="370" />
              <mxPoint x="468" y="249" />
              <mxPoint x="445" y="249" />
            </Array>
          </mxGeometry>
        </mxCell>
        <mxCell id="WxOFqhejSJ8d4apdW_I4-185" value="backtrack" style="edgeLabel;html=1;align=center;verticalAlign=middle;resizable=0;points=[];" vertex="1" connectable="0" parent="WxOFqhejSJ8d4apdW_I4-184">
          <mxGeometry x="0.1357" y="3" relative="1" as="geometry">
            <mxPoint as="offset" />
          </mxGeometry>
        </mxCell>
        <mxCell id="WxOFqhejSJ8d4apdW_I4-186" value="" style="shape=table;startSize=0;container=1;collapsible=0;childLayout=tableLayout;fontSize=16;" vertex="1" parent="1">
          <mxGeometry x="570" y="200" width="170" height="100" as="geometry" />
        </mxCell>
        <mxCell id="WxOFqhejSJ8d4apdW_I4-187" style="shape=tableRow;horizontal=0;startSize=0;swimlaneHead=0;swimlaneBody=0;strokeColor=inherit;top=0;left=0;bottom=0;right=0;collapsible=0;dropTarget=0;fillColor=none;points=[[0,0.5],[1,0.5]];portConstraint=eastwest;fontSize=16;" vertex="1" parent="WxOFqhejSJ8d4apdW_I4-186">
          <mxGeometry width="170" height="25" as="geometry" />
        </mxCell>
        <mxCell id="WxOFqhejSJ8d4apdW_I4-188" value="" style="shape=partialRectangle;html=1;whiteSpace=wrap;connectable=0;strokeColor=inherit;overflow=hidden;fillColor=none;top=0;left=0;bottom=0;right=0;pointerEvents=1;fontSize=16;" vertex="1" parent="WxOFqhejSJ8d4apdW_I4-187">
          <mxGeometry width="43" height="25" as="geometry">
            <mxRectangle width="43" height="25" as="alternateBounds" />
          </mxGeometry>
        </mxCell>
        <mxCell id="WxOFqhejSJ8d4apdW_I4-189" value="Q" style="shape=partialRectangle;html=1;whiteSpace=wrap;connectable=0;strokeColor=inherit;overflow=hidden;fillColor=none;top=0;left=0;bottom=0;right=0;pointerEvents=1;fontSize=16;" vertex="1" parent="WxOFqhejSJ8d4apdW_I4-187">
          <mxGeometry x="43" width="42" height="25" as="geometry">
            <mxRectangle width="42" height="25" as="alternateBounds" />
          </mxGeometry>
        </mxCell>
        <mxCell id="WxOFqhejSJ8d4apdW_I4-190" style="shape=partialRectangle;html=1;whiteSpace=wrap;connectable=0;strokeColor=inherit;overflow=hidden;fillColor=none;top=0;left=0;bottom=0;right=0;pointerEvents=1;fontSize=16;" vertex="1" parent="WxOFqhejSJ8d4apdW_I4-187">
          <mxGeometry x="85" width="43" height="25" as="geometry">
            <mxRectangle width="43" height="25" as="alternateBounds" />
          </mxGeometry>
        </mxCell>
        <mxCell id="WxOFqhejSJ8d4apdW_I4-191" style="shape=partialRectangle;html=1;whiteSpace=wrap;connectable=0;strokeColor=inherit;overflow=hidden;fillColor=none;top=0;left=0;bottom=0;right=0;pointerEvents=1;fontSize=16;" vertex="1" parent="WxOFqhejSJ8d4apdW_I4-187">
          <mxGeometry x="128" width="42" height="25" as="geometry">
            <mxRectangle width="42" height="25" as="alternateBounds" />
          </mxGeometry>
        </mxCell>
        <mxCell id="WxOFqhejSJ8d4apdW_I4-192" value="" style="shape=tableRow;horizontal=0;startSize=0;swimlaneHead=0;swimlaneBody=0;strokeColor=inherit;top=0;left=0;bottom=0;right=0;collapsible=0;dropTarget=0;fillColor=none;points=[[0,0.5],[1,0.5]];portConstraint=eastwest;fontSize=16;" vertex="1" parent="WxOFqhejSJ8d4apdW_I4-186">
          <mxGeometry y="25" width="170" height="25" as="geometry" />
        </mxCell>
        <mxCell id="WxOFqhejSJ8d4apdW_I4-193" value="" style="shape=partialRectangle;html=1;whiteSpace=wrap;connectable=0;strokeColor=inherit;overflow=hidden;fillColor=none;top=0;left=0;bottom=0;right=0;pointerEvents=1;fontSize=16;" vertex="1" parent="WxOFqhejSJ8d4apdW_I4-192">
          <mxGeometry width="43" height="25" as="geometry">
            <mxRectangle width="43" height="25" as="alternateBounds" />
          </mxGeometry>
        </mxCell>
        <mxCell id="WxOFqhejSJ8d4apdW_I4-194" value="" style="shape=partialRectangle;html=1;whiteSpace=wrap;connectable=0;strokeColor=inherit;overflow=hidden;fillColor=none;top=0;left=0;bottom=0;right=0;pointerEvents=1;fontSize=16;" vertex="1" parent="WxOFqhejSJ8d4apdW_I4-192">
          <mxGeometry x="43" width="42" height="25" as="geometry">
            <mxRectangle width="42" height="25" as="alternateBounds" />
          </mxGeometry>
        </mxCell>
        <mxCell id="WxOFqhejSJ8d4apdW_I4-195" value="" style="shape=partialRectangle;html=1;whiteSpace=wrap;connectable=0;strokeColor=inherit;overflow=hidden;fillColor=none;top=0;left=0;bottom=0;right=0;pointerEvents=1;fontSize=16;" vertex="1" parent="WxOFqhejSJ8d4apdW_I4-192">
          <mxGeometry x="85" width="43" height="25" as="geometry">
            <mxRectangle width="43" height="25" as="alternateBounds" />
          </mxGeometry>
        </mxCell>
        <mxCell id="WxOFqhejSJ8d4apdW_I4-196" style="shape=partialRectangle;html=1;whiteSpace=wrap;connectable=0;strokeColor=inherit;overflow=hidden;fillColor=none;top=0;left=0;bottom=0;right=0;pointerEvents=1;fontSize=16;" vertex="1" parent="WxOFqhejSJ8d4apdW_I4-192">
          <mxGeometry x="128" width="42" height="25" as="geometry">
            <mxRectangle width="42" height="25" as="alternateBounds" />
          </mxGeometry>
        </mxCell>
        <mxCell id="WxOFqhejSJ8d4apdW_I4-197" value="" style="shape=tableRow;horizontal=0;startSize=0;swimlaneHead=0;swimlaneBody=0;strokeColor=inherit;top=0;left=0;bottom=0;right=0;collapsible=0;dropTarget=0;fillColor=none;points=[[0,0.5],[1,0.5]];portConstraint=eastwest;fontSize=16;" vertex="1" parent="WxOFqhejSJ8d4apdW_I4-186">
          <mxGeometry y="50" width="170" height="25" as="geometry" />
        </mxCell>
        <mxCell id="WxOFqhejSJ8d4apdW_I4-198" value="" style="shape=partialRectangle;html=1;whiteSpace=wrap;connectable=0;strokeColor=inherit;overflow=hidden;fillColor=none;top=0;left=0;bottom=0;right=0;pointerEvents=1;fontSize=16;" vertex="1" parent="WxOFqhejSJ8d4apdW_I4-197">
          <mxGeometry width="43" height="25" as="geometry">
            <mxRectangle width="43" height="25" as="alternateBounds" />
          </mxGeometry>
        </mxCell>
        <mxCell id="WxOFqhejSJ8d4apdW_I4-199" value="" style="shape=partialRectangle;html=1;whiteSpace=wrap;connectable=0;strokeColor=inherit;overflow=hidden;fillColor=none;top=0;left=0;bottom=0;right=0;pointerEvents=1;fontSize=16;" vertex="1" parent="WxOFqhejSJ8d4apdW_I4-197">
          <mxGeometry x="43" width="42" height="25" as="geometry">
            <mxRectangle width="42" height="25" as="alternateBounds" />
          </mxGeometry>
        </mxCell>
        <mxCell id="WxOFqhejSJ8d4apdW_I4-200" value="" style="shape=partialRectangle;html=1;whiteSpace=wrap;connectable=0;strokeColor=inherit;overflow=hidden;fillColor=none;top=0;left=0;bottom=0;right=0;pointerEvents=1;fontSize=16;" vertex="1" parent="WxOFqhejSJ8d4apdW_I4-197">
          <mxGeometry x="85" width="43" height="25" as="geometry">
            <mxRectangle width="43" height="25" as="alternateBounds" />
          </mxGeometry>
        </mxCell>
        <mxCell id="WxOFqhejSJ8d4apdW_I4-201" style="shape=partialRectangle;html=1;whiteSpace=wrap;connectable=0;strokeColor=inherit;overflow=hidden;fillColor=none;top=0;left=0;bottom=0;right=0;pointerEvents=1;fontSize=16;" vertex="1" parent="WxOFqhejSJ8d4apdW_I4-197">
          <mxGeometry x="128" width="42" height="25" as="geometry">
            <mxRectangle width="42" height="25" as="alternateBounds" />
          </mxGeometry>
        </mxCell>
        <mxCell id="WxOFqhejSJ8d4apdW_I4-202" style="shape=tableRow;horizontal=0;startSize=0;swimlaneHead=0;swimlaneBody=0;strokeColor=inherit;top=0;left=0;bottom=0;right=0;collapsible=0;dropTarget=0;fillColor=none;points=[[0,0.5],[1,0.5]];portConstraint=eastwest;fontSize=16;" vertex="1" parent="WxOFqhejSJ8d4apdW_I4-186">
          <mxGeometry y="75" width="170" height="25" as="geometry" />
        </mxCell>
        <mxCell id="WxOFqhejSJ8d4apdW_I4-203" style="shape=partialRectangle;html=1;whiteSpace=wrap;connectable=0;strokeColor=inherit;overflow=hidden;fillColor=none;top=0;left=0;bottom=0;right=0;pointerEvents=1;fontSize=16;" vertex="1" parent="WxOFqhejSJ8d4apdW_I4-202">
          <mxGeometry width="43" height="25" as="geometry">
            <mxRectangle width="43" height="25" as="alternateBounds" />
          </mxGeometry>
        </mxCell>
        <mxCell id="WxOFqhejSJ8d4apdW_I4-204" style="shape=partialRectangle;html=1;whiteSpace=wrap;connectable=0;strokeColor=inherit;overflow=hidden;fillColor=none;top=0;left=0;bottom=0;right=0;pointerEvents=1;fontSize=16;" vertex="1" parent="WxOFqhejSJ8d4apdW_I4-202">
          <mxGeometry x="43" width="42" height="25" as="geometry">
            <mxRectangle width="42" height="25" as="alternateBounds" />
          </mxGeometry>
        </mxCell>
        <mxCell id="WxOFqhejSJ8d4apdW_I4-205" style="shape=partialRectangle;html=1;whiteSpace=wrap;connectable=0;strokeColor=inherit;overflow=hidden;fillColor=none;top=0;left=0;bottom=0;right=0;pointerEvents=1;fontSize=16;" vertex="1" parent="WxOFqhejSJ8d4apdW_I4-202">
          <mxGeometry x="85" width="43" height="25" as="geometry">
            <mxRectangle width="43" height="25" as="alternateBounds" />
          </mxGeometry>
        </mxCell>
        <mxCell id="WxOFqhejSJ8d4apdW_I4-206" style="shape=partialRectangle;html=1;whiteSpace=wrap;connectable=0;strokeColor=inherit;overflow=hidden;fillColor=none;top=0;left=0;bottom=0;right=0;pointerEvents=1;fontSize=16;" vertex="1" parent="WxOFqhejSJ8d4apdW_I4-202">
          <mxGeometry x="128" width="42" height="25" as="geometry">
            <mxRectangle width="42" height="25" as="alternateBounds" />
          </mxGeometry>
        </mxCell>
        <mxCell id="WxOFqhejSJ8d4apdW_I4-207" value="0, 1" style="text;html=1;strokeColor=none;fillColor=none;align=center;verticalAlign=middle;whiteSpace=wrap;rounded=0;" vertex="1" parent="1">
          <mxGeometry x="595" y="170" width="60" height="30" as="geometry" />
        </mxCell>
        <mxCell id="WxOFqhejSJ8d4apdW_I4-208" value="" style="shape=table;startSize=0;container=1;collapsible=0;childLayout=tableLayout;fontSize=16;" vertex="1" parent="1">
          <mxGeometry x="670" y="380" width="170" height="100" as="geometry" />
        </mxCell>
        <mxCell id="WxOFqhejSJ8d4apdW_I4-209" style="shape=tableRow;horizontal=0;startSize=0;swimlaneHead=0;swimlaneBody=0;strokeColor=inherit;top=0;left=0;bottom=0;right=0;collapsible=0;dropTarget=0;fillColor=none;points=[[0,0.5],[1,0.5]];portConstraint=eastwest;fontSize=16;" vertex="1" parent="WxOFqhejSJ8d4apdW_I4-208">
          <mxGeometry width="170" height="25" as="geometry" />
        </mxCell>
        <mxCell id="WxOFqhejSJ8d4apdW_I4-210" value="" style="shape=partialRectangle;html=1;whiteSpace=wrap;connectable=0;strokeColor=inherit;overflow=hidden;fillColor=none;top=0;left=0;bottom=0;right=0;pointerEvents=1;fontSize=16;" vertex="1" parent="WxOFqhejSJ8d4apdW_I4-209">
          <mxGeometry width="43" height="25" as="geometry">
            <mxRectangle width="43" height="25" as="alternateBounds" />
          </mxGeometry>
        </mxCell>
        <mxCell id="WxOFqhejSJ8d4apdW_I4-211" value="Q" style="shape=partialRectangle;html=1;whiteSpace=wrap;connectable=0;strokeColor=inherit;overflow=hidden;fillColor=none;top=0;left=0;bottom=0;right=0;pointerEvents=1;fontSize=16;" vertex="1" parent="WxOFqhejSJ8d4apdW_I4-209">
          <mxGeometry x="43" width="42" height="25" as="geometry">
            <mxRectangle width="42" height="25" as="alternateBounds" />
          </mxGeometry>
        </mxCell>
        <mxCell id="WxOFqhejSJ8d4apdW_I4-212" style="shape=partialRectangle;html=1;whiteSpace=wrap;connectable=0;strokeColor=inherit;overflow=hidden;fillColor=none;top=0;left=0;bottom=0;right=0;pointerEvents=1;fontSize=16;" vertex="1" parent="WxOFqhejSJ8d4apdW_I4-209">
          <mxGeometry x="85" width="43" height="25" as="geometry">
            <mxRectangle width="43" height="25" as="alternateBounds" />
          </mxGeometry>
        </mxCell>
        <mxCell id="WxOFqhejSJ8d4apdW_I4-213" style="shape=partialRectangle;html=1;whiteSpace=wrap;connectable=0;strokeColor=inherit;overflow=hidden;fillColor=none;top=0;left=0;bottom=0;right=0;pointerEvents=1;fontSize=16;" vertex="1" parent="WxOFqhejSJ8d4apdW_I4-209">
          <mxGeometry x="128" width="42" height="25" as="geometry">
            <mxRectangle width="42" height="25" as="alternateBounds" />
          </mxGeometry>
        </mxCell>
        <mxCell id="WxOFqhejSJ8d4apdW_I4-214" value="" style="shape=tableRow;horizontal=0;startSize=0;swimlaneHead=0;swimlaneBody=0;strokeColor=inherit;top=0;left=0;bottom=0;right=0;collapsible=0;dropTarget=0;fillColor=none;points=[[0,0.5],[1,0.5]];portConstraint=eastwest;fontSize=16;" vertex="1" parent="WxOFqhejSJ8d4apdW_I4-208">
          <mxGeometry y="25" width="170" height="25" as="geometry" />
        </mxCell>
        <mxCell id="WxOFqhejSJ8d4apdW_I4-215" value="" style="shape=partialRectangle;html=1;whiteSpace=wrap;connectable=0;strokeColor=inherit;overflow=hidden;fillColor=none;top=0;left=0;bottom=0;right=0;pointerEvents=1;fontSize=16;" vertex="1" parent="WxOFqhejSJ8d4apdW_I4-214">
          <mxGeometry width="43" height="25" as="geometry">
            <mxRectangle width="43" height="25" as="alternateBounds" />
          </mxGeometry>
        </mxCell>
        <mxCell id="WxOFqhejSJ8d4apdW_I4-216" value="" style="shape=partialRectangle;html=1;whiteSpace=wrap;connectable=0;strokeColor=inherit;overflow=hidden;fillColor=none;top=0;left=0;bottom=0;right=0;pointerEvents=1;fontSize=16;" vertex="1" parent="WxOFqhejSJ8d4apdW_I4-214">
          <mxGeometry x="43" width="42" height="25" as="geometry">
            <mxRectangle width="42" height="25" as="alternateBounds" />
          </mxGeometry>
        </mxCell>
        <mxCell id="WxOFqhejSJ8d4apdW_I4-217" value="" style="shape=partialRectangle;html=1;whiteSpace=wrap;connectable=0;strokeColor=inherit;overflow=hidden;fillColor=none;top=0;left=0;bottom=0;right=0;pointerEvents=1;fontSize=16;" vertex="1" parent="WxOFqhejSJ8d4apdW_I4-214">
          <mxGeometry x="85" width="43" height="25" as="geometry">
            <mxRectangle width="43" height="25" as="alternateBounds" />
          </mxGeometry>
        </mxCell>
        <mxCell id="WxOFqhejSJ8d4apdW_I4-218" value="Q" style="shape=partialRectangle;html=1;whiteSpace=wrap;connectable=0;strokeColor=inherit;overflow=hidden;fillColor=none;top=0;left=0;bottom=0;right=0;pointerEvents=1;fontSize=16;" vertex="1" parent="WxOFqhejSJ8d4apdW_I4-214">
          <mxGeometry x="128" width="42" height="25" as="geometry">
            <mxRectangle width="42" height="25" as="alternateBounds" />
          </mxGeometry>
        </mxCell>
        <mxCell id="WxOFqhejSJ8d4apdW_I4-219" value="" style="shape=tableRow;horizontal=0;startSize=0;swimlaneHead=0;swimlaneBody=0;strokeColor=inherit;top=0;left=0;bottom=0;right=0;collapsible=0;dropTarget=0;fillColor=none;points=[[0,0.5],[1,0.5]];portConstraint=eastwest;fontSize=16;" vertex="1" parent="WxOFqhejSJ8d4apdW_I4-208">
          <mxGeometry y="50" width="170" height="25" as="geometry" />
        </mxCell>
        <mxCell id="WxOFqhejSJ8d4apdW_I4-220" value="" style="shape=partialRectangle;html=1;whiteSpace=wrap;connectable=0;strokeColor=inherit;overflow=hidden;fillColor=none;top=0;left=0;bottom=0;right=0;pointerEvents=1;fontSize=16;" vertex="1" parent="WxOFqhejSJ8d4apdW_I4-219">
          <mxGeometry width="43" height="25" as="geometry">
            <mxRectangle width="43" height="25" as="alternateBounds" />
          </mxGeometry>
        </mxCell>
        <mxCell id="WxOFqhejSJ8d4apdW_I4-221" value="" style="shape=partialRectangle;html=1;whiteSpace=wrap;connectable=0;strokeColor=inherit;overflow=hidden;fillColor=none;top=0;left=0;bottom=0;right=0;pointerEvents=1;fontSize=16;" vertex="1" parent="WxOFqhejSJ8d4apdW_I4-219">
          <mxGeometry x="43" width="42" height="25" as="geometry">
            <mxRectangle width="42" height="25" as="alternateBounds" />
          </mxGeometry>
        </mxCell>
        <mxCell id="WxOFqhejSJ8d4apdW_I4-222" value="" style="shape=partialRectangle;html=1;whiteSpace=wrap;connectable=0;strokeColor=inherit;overflow=hidden;fillColor=none;top=0;left=0;bottom=0;right=0;pointerEvents=1;fontSize=16;" vertex="1" parent="WxOFqhejSJ8d4apdW_I4-219">
          <mxGeometry x="85" width="43" height="25" as="geometry">
            <mxRectangle width="43" height="25" as="alternateBounds" />
          </mxGeometry>
        </mxCell>
        <mxCell id="WxOFqhejSJ8d4apdW_I4-223" style="shape=partialRectangle;html=1;whiteSpace=wrap;connectable=0;strokeColor=inherit;overflow=hidden;fillColor=none;top=0;left=0;bottom=0;right=0;pointerEvents=1;fontSize=16;" vertex="1" parent="WxOFqhejSJ8d4apdW_I4-219">
          <mxGeometry x="128" width="42" height="25" as="geometry">
            <mxRectangle width="42" height="25" as="alternateBounds" />
          </mxGeometry>
        </mxCell>
        <mxCell id="WxOFqhejSJ8d4apdW_I4-224" style="shape=tableRow;horizontal=0;startSize=0;swimlaneHead=0;swimlaneBody=0;strokeColor=inherit;top=0;left=0;bottom=0;right=0;collapsible=0;dropTarget=0;fillColor=none;points=[[0,0.5],[1,0.5]];portConstraint=eastwest;fontSize=16;" vertex="1" parent="WxOFqhejSJ8d4apdW_I4-208">
          <mxGeometry y="75" width="170" height="25" as="geometry" />
        </mxCell>
        <mxCell id="WxOFqhejSJ8d4apdW_I4-225" style="shape=partialRectangle;html=1;whiteSpace=wrap;connectable=0;strokeColor=inherit;overflow=hidden;fillColor=none;top=0;left=0;bottom=0;right=0;pointerEvents=1;fontSize=16;" vertex="1" parent="WxOFqhejSJ8d4apdW_I4-224">
          <mxGeometry width="43" height="25" as="geometry">
            <mxRectangle width="43" height="25" as="alternateBounds" />
          </mxGeometry>
        </mxCell>
        <mxCell id="WxOFqhejSJ8d4apdW_I4-226" style="shape=partialRectangle;html=1;whiteSpace=wrap;connectable=0;strokeColor=inherit;overflow=hidden;fillColor=none;top=0;left=0;bottom=0;right=0;pointerEvents=1;fontSize=16;" vertex="1" parent="WxOFqhejSJ8d4apdW_I4-224">
          <mxGeometry x="43" width="42" height="25" as="geometry">
            <mxRectangle width="42" height="25" as="alternateBounds" />
          </mxGeometry>
        </mxCell>
        <mxCell id="WxOFqhejSJ8d4apdW_I4-227" style="shape=partialRectangle;html=1;whiteSpace=wrap;connectable=0;strokeColor=inherit;overflow=hidden;fillColor=none;top=0;left=0;bottom=0;right=0;pointerEvents=1;fontSize=16;" vertex="1" parent="WxOFqhejSJ8d4apdW_I4-224">
          <mxGeometry x="85" width="43" height="25" as="geometry">
            <mxRectangle width="43" height="25" as="alternateBounds" />
          </mxGeometry>
        </mxCell>
        <mxCell id="WxOFqhejSJ8d4apdW_I4-228" style="shape=partialRectangle;html=1;whiteSpace=wrap;connectable=0;strokeColor=inherit;overflow=hidden;fillColor=none;top=0;left=0;bottom=0;right=0;pointerEvents=1;fontSize=16;" vertex="1" parent="WxOFqhejSJ8d4apdW_I4-224">
          <mxGeometry x="128" width="42" height="25" as="geometry">
            <mxRectangle width="42" height="25" as="alternateBounds" />
          </mxGeometry>
        </mxCell>
        <mxCell id="WxOFqhejSJ8d4apdW_I4-229" value="1, 3" style="text;html=1;strokeColor=none;fillColor=none;align=center;verticalAlign=middle;whiteSpace=wrap;rounded=0;" vertex="1" parent="1">
          <mxGeometry x="695" y="350" width="60" height="30" as="geometry" />
        </mxCell>
        <mxCell id="WxOFqhejSJ8d4apdW_I4-230" value="" style="shape=table;startSize=0;container=1;collapsible=0;childLayout=tableLayout;fontSize=16;" vertex="1" parent="1">
          <mxGeometry x="750" y="570" width="170" height="100" as="geometry" />
        </mxCell>
        <mxCell id="WxOFqhejSJ8d4apdW_I4-231" style="shape=tableRow;horizontal=0;startSize=0;swimlaneHead=0;swimlaneBody=0;strokeColor=inherit;top=0;left=0;bottom=0;right=0;collapsible=0;dropTarget=0;fillColor=none;points=[[0,0.5],[1,0.5]];portConstraint=eastwest;fontSize=16;" vertex="1" parent="WxOFqhejSJ8d4apdW_I4-230">
          <mxGeometry width="170" height="25" as="geometry" />
        </mxCell>
        <mxCell id="WxOFqhejSJ8d4apdW_I4-232" value="" style="shape=partialRectangle;html=1;whiteSpace=wrap;connectable=0;strokeColor=inherit;overflow=hidden;fillColor=none;top=0;left=0;bottom=0;right=0;pointerEvents=1;fontSize=16;" vertex="1" parent="WxOFqhejSJ8d4apdW_I4-231">
          <mxGeometry width="43" height="25" as="geometry">
            <mxRectangle width="43" height="25" as="alternateBounds" />
          </mxGeometry>
        </mxCell>
        <mxCell id="WxOFqhejSJ8d4apdW_I4-233" value="Q" style="shape=partialRectangle;html=1;whiteSpace=wrap;connectable=0;strokeColor=inherit;overflow=hidden;fillColor=none;top=0;left=0;bottom=0;right=0;pointerEvents=1;fontSize=16;" vertex="1" parent="WxOFqhejSJ8d4apdW_I4-231">
          <mxGeometry x="43" width="42" height="25" as="geometry">
            <mxRectangle width="42" height="25" as="alternateBounds" />
          </mxGeometry>
        </mxCell>
        <mxCell id="WxOFqhejSJ8d4apdW_I4-234" style="shape=partialRectangle;html=1;whiteSpace=wrap;connectable=0;strokeColor=inherit;overflow=hidden;fillColor=none;top=0;left=0;bottom=0;right=0;pointerEvents=1;fontSize=16;" vertex="1" parent="WxOFqhejSJ8d4apdW_I4-231">
          <mxGeometry x="85" width="43" height="25" as="geometry">
            <mxRectangle width="43" height="25" as="alternateBounds" />
          </mxGeometry>
        </mxCell>
        <mxCell id="WxOFqhejSJ8d4apdW_I4-235" style="shape=partialRectangle;html=1;whiteSpace=wrap;connectable=0;strokeColor=inherit;overflow=hidden;fillColor=none;top=0;left=0;bottom=0;right=0;pointerEvents=1;fontSize=16;" vertex="1" parent="WxOFqhejSJ8d4apdW_I4-231">
          <mxGeometry x="128" width="42" height="25" as="geometry">
            <mxRectangle width="42" height="25" as="alternateBounds" />
          </mxGeometry>
        </mxCell>
        <mxCell id="WxOFqhejSJ8d4apdW_I4-236" value="" style="shape=tableRow;horizontal=0;startSize=0;swimlaneHead=0;swimlaneBody=0;strokeColor=inherit;top=0;left=0;bottom=0;right=0;collapsible=0;dropTarget=0;fillColor=none;points=[[0,0.5],[1,0.5]];portConstraint=eastwest;fontSize=16;" vertex="1" parent="WxOFqhejSJ8d4apdW_I4-230">
          <mxGeometry y="25" width="170" height="25" as="geometry" />
        </mxCell>
        <mxCell id="WxOFqhejSJ8d4apdW_I4-237" value="" style="shape=partialRectangle;html=1;whiteSpace=wrap;connectable=0;strokeColor=inherit;overflow=hidden;fillColor=none;top=0;left=0;bottom=0;right=0;pointerEvents=1;fontSize=16;" vertex="1" parent="WxOFqhejSJ8d4apdW_I4-236">
          <mxGeometry width="43" height="25" as="geometry">
            <mxRectangle width="43" height="25" as="alternateBounds" />
          </mxGeometry>
        </mxCell>
        <mxCell id="WxOFqhejSJ8d4apdW_I4-238" value="" style="shape=partialRectangle;html=1;whiteSpace=wrap;connectable=0;strokeColor=inherit;overflow=hidden;fillColor=none;top=0;left=0;bottom=0;right=0;pointerEvents=1;fontSize=16;" vertex="1" parent="WxOFqhejSJ8d4apdW_I4-236">
          <mxGeometry x="43" width="42" height="25" as="geometry">
            <mxRectangle width="42" height="25" as="alternateBounds" />
          </mxGeometry>
        </mxCell>
        <mxCell id="WxOFqhejSJ8d4apdW_I4-239" value="" style="shape=partialRectangle;html=1;whiteSpace=wrap;connectable=0;strokeColor=inherit;overflow=hidden;fillColor=none;top=0;left=0;bottom=0;right=0;pointerEvents=1;fontSize=16;" vertex="1" parent="WxOFqhejSJ8d4apdW_I4-236">
          <mxGeometry x="85" width="43" height="25" as="geometry">
            <mxRectangle width="43" height="25" as="alternateBounds" />
          </mxGeometry>
        </mxCell>
        <mxCell id="WxOFqhejSJ8d4apdW_I4-240" value="Q" style="shape=partialRectangle;html=1;whiteSpace=wrap;connectable=0;strokeColor=inherit;overflow=hidden;fillColor=none;top=0;left=0;bottom=0;right=0;pointerEvents=1;fontSize=16;" vertex="1" parent="WxOFqhejSJ8d4apdW_I4-236">
          <mxGeometry x="128" width="42" height="25" as="geometry">
            <mxRectangle width="42" height="25" as="alternateBounds" />
          </mxGeometry>
        </mxCell>
        <mxCell id="WxOFqhejSJ8d4apdW_I4-241" value="" style="shape=tableRow;horizontal=0;startSize=0;swimlaneHead=0;swimlaneBody=0;strokeColor=inherit;top=0;left=0;bottom=0;right=0;collapsible=0;dropTarget=0;fillColor=none;points=[[0,0.5],[1,0.5]];portConstraint=eastwest;fontSize=16;" vertex="1" parent="WxOFqhejSJ8d4apdW_I4-230">
          <mxGeometry y="50" width="170" height="25" as="geometry" />
        </mxCell>
        <mxCell id="WxOFqhejSJ8d4apdW_I4-242" value="Q" style="shape=partialRectangle;html=1;whiteSpace=wrap;connectable=0;strokeColor=inherit;overflow=hidden;fillColor=none;top=0;left=0;bottom=0;right=0;pointerEvents=1;fontSize=16;" vertex="1" parent="WxOFqhejSJ8d4apdW_I4-241">
          <mxGeometry width="43" height="25" as="geometry">
            <mxRectangle width="43" height="25" as="alternateBounds" />
          </mxGeometry>
        </mxCell>
        <mxCell id="WxOFqhejSJ8d4apdW_I4-243" value="" style="shape=partialRectangle;html=1;whiteSpace=wrap;connectable=0;strokeColor=inherit;overflow=hidden;fillColor=none;top=0;left=0;bottom=0;right=0;pointerEvents=1;fontSize=16;" vertex="1" parent="WxOFqhejSJ8d4apdW_I4-241">
          <mxGeometry x="43" width="42" height="25" as="geometry">
            <mxRectangle width="42" height="25" as="alternateBounds" />
          </mxGeometry>
        </mxCell>
        <mxCell id="WxOFqhejSJ8d4apdW_I4-244" value="" style="shape=partialRectangle;html=1;whiteSpace=wrap;connectable=0;strokeColor=inherit;overflow=hidden;fillColor=none;top=0;left=0;bottom=0;right=0;pointerEvents=1;fontSize=16;" vertex="1" parent="WxOFqhejSJ8d4apdW_I4-241">
          <mxGeometry x="85" width="43" height="25" as="geometry">
            <mxRectangle width="43" height="25" as="alternateBounds" />
          </mxGeometry>
        </mxCell>
        <mxCell id="WxOFqhejSJ8d4apdW_I4-245" style="shape=partialRectangle;html=1;whiteSpace=wrap;connectable=0;strokeColor=inherit;overflow=hidden;fillColor=none;top=0;left=0;bottom=0;right=0;pointerEvents=1;fontSize=16;" vertex="1" parent="WxOFqhejSJ8d4apdW_I4-241">
          <mxGeometry x="128" width="42" height="25" as="geometry">
            <mxRectangle width="42" height="25" as="alternateBounds" />
          </mxGeometry>
        </mxCell>
        <mxCell id="WxOFqhejSJ8d4apdW_I4-246" style="shape=tableRow;horizontal=0;startSize=0;swimlaneHead=0;swimlaneBody=0;strokeColor=inherit;top=0;left=0;bottom=0;right=0;collapsible=0;dropTarget=0;fillColor=none;points=[[0,0.5],[1,0.5]];portConstraint=eastwest;fontSize=16;" vertex="1" parent="WxOFqhejSJ8d4apdW_I4-230">
          <mxGeometry y="75" width="170" height="25" as="geometry" />
        </mxCell>
        <mxCell id="WxOFqhejSJ8d4apdW_I4-247" style="shape=partialRectangle;html=1;whiteSpace=wrap;connectable=0;strokeColor=inherit;overflow=hidden;fillColor=none;top=0;left=0;bottom=0;right=0;pointerEvents=1;fontSize=16;" vertex="1" parent="WxOFqhejSJ8d4apdW_I4-246">
          <mxGeometry width="43" height="25" as="geometry">
            <mxRectangle width="43" height="25" as="alternateBounds" />
          </mxGeometry>
        </mxCell>
        <mxCell id="WxOFqhejSJ8d4apdW_I4-248" style="shape=partialRectangle;html=1;whiteSpace=wrap;connectable=0;strokeColor=inherit;overflow=hidden;fillColor=none;top=0;left=0;bottom=0;right=0;pointerEvents=1;fontSize=16;" vertex="1" parent="WxOFqhejSJ8d4apdW_I4-246">
          <mxGeometry x="43" width="42" height="25" as="geometry">
            <mxRectangle width="42" height="25" as="alternateBounds" />
          </mxGeometry>
        </mxCell>
        <mxCell id="WxOFqhejSJ8d4apdW_I4-249" style="shape=partialRectangle;html=1;whiteSpace=wrap;connectable=0;strokeColor=inherit;overflow=hidden;fillColor=none;top=0;left=0;bottom=0;right=0;pointerEvents=1;fontSize=16;" vertex="1" parent="WxOFqhejSJ8d4apdW_I4-246">
          <mxGeometry x="85" width="43" height="25" as="geometry">
            <mxRectangle width="43" height="25" as="alternateBounds" />
          </mxGeometry>
        </mxCell>
        <mxCell id="WxOFqhejSJ8d4apdW_I4-250" style="shape=partialRectangle;html=1;whiteSpace=wrap;connectable=0;strokeColor=inherit;overflow=hidden;fillColor=none;top=0;left=0;bottom=0;right=0;pointerEvents=1;fontSize=16;" vertex="1" parent="WxOFqhejSJ8d4apdW_I4-246">
          <mxGeometry x="128" width="42" height="25" as="geometry">
            <mxRectangle width="42" height="25" as="alternateBounds" />
          </mxGeometry>
        </mxCell>
        <mxCell id="WxOFqhejSJ8d4apdW_I4-251" value="2, 0" style="text;html=1;strokeColor=none;fillColor=none;align=center;verticalAlign=middle;whiteSpace=wrap;rounded=0;" vertex="1" parent="1">
          <mxGeometry x="775" y="540" width="60" height="30" as="geometry" />
        </mxCell>
        <mxCell id="WxOFqhejSJ8d4apdW_I4-252" value="" style="shape=table;startSize=0;container=1;collapsible=0;childLayout=tableLayout;fontSize=16;strokeColor=#00994D;shadow=1;" vertex="1" parent="1">
          <mxGeometry x="800" y="760" width="170" height="100" as="geometry" />
        </mxCell>
        <mxCell id="WxOFqhejSJ8d4apdW_I4-253" style="shape=tableRow;horizontal=0;startSize=0;swimlaneHead=0;swimlaneBody=0;strokeColor=inherit;top=0;left=0;bottom=0;right=0;collapsible=0;dropTarget=0;fillColor=none;points=[[0,0.5],[1,0.5]];portConstraint=eastwest;fontSize=16;shadow=1;" vertex="1" parent="WxOFqhejSJ8d4apdW_I4-252">
          <mxGeometry width="170" height="25" as="geometry" />
        </mxCell>
        <mxCell id="WxOFqhejSJ8d4apdW_I4-254" value="" style="shape=partialRectangle;html=1;whiteSpace=wrap;connectable=0;strokeColor=inherit;overflow=hidden;fillColor=none;top=0;left=0;bottom=0;right=0;pointerEvents=1;fontSize=16;shadow=1;" vertex="1" parent="WxOFqhejSJ8d4apdW_I4-253">
          <mxGeometry width="43" height="25" as="geometry">
            <mxRectangle width="43" height="25" as="alternateBounds" />
          </mxGeometry>
        </mxCell>
        <mxCell id="WxOFqhejSJ8d4apdW_I4-255" value="Q" style="shape=partialRectangle;html=1;whiteSpace=wrap;connectable=0;strokeColor=inherit;overflow=hidden;fillColor=none;top=0;left=0;bottom=0;right=0;pointerEvents=1;fontSize=16;shadow=1;" vertex="1" parent="WxOFqhejSJ8d4apdW_I4-253">
          <mxGeometry x="43" width="42" height="25" as="geometry">
            <mxRectangle width="42" height="25" as="alternateBounds" />
          </mxGeometry>
        </mxCell>
        <mxCell id="WxOFqhejSJ8d4apdW_I4-256" style="shape=partialRectangle;html=1;whiteSpace=wrap;connectable=0;strokeColor=inherit;overflow=hidden;fillColor=none;top=0;left=0;bottom=0;right=0;pointerEvents=1;fontSize=16;shadow=1;" vertex="1" parent="WxOFqhejSJ8d4apdW_I4-253">
          <mxGeometry x="85" width="43" height="25" as="geometry">
            <mxRectangle width="43" height="25" as="alternateBounds" />
          </mxGeometry>
        </mxCell>
        <mxCell id="WxOFqhejSJ8d4apdW_I4-257" style="shape=partialRectangle;html=1;whiteSpace=wrap;connectable=0;strokeColor=inherit;overflow=hidden;fillColor=none;top=0;left=0;bottom=0;right=0;pointerEvents=1;fontSize=16;shadow=1;" vertex="1" parent="WxOFqhejSJ8d4apdW_I4-253">
          <mxGeometry x="128" width="42" height="25" as="geometry">
            <mxRectangle width="42" height="25" as="alternateBounds" />
          </mxGeometry>
        </mxCell>
        <mxCell id="WxOFqhejSJ8d4apdW_I4-258" value="" style="shape=tableRow;horizontal=0;startSize=0;swimlaneHead=0;swimlaneBody=0;strokeColor=inherit;top=0;left=0;bottom=0;right=0;collapsible=0;dropTarget=0;fillColor=none;points=[[0,0.5],[1,0.5]];portConstraint=eastwest;fontSize=16;shadow=1;" vertex="1" parent="WxOFqhejSJ8d4apdW_I4-252">
          <mxGeometry y="25" width="170" height="25" as="geometry" />
        </mxCell>
        <mxCell id="WxOFqhejSJ8d4apdW_I4-259" value="" style="shape=partialRectangle;html=1;whiteSpace=wrap;connectable=0;strokeColor=inherit;overflow=hidden;fillColor=none;top=0;left=0;bottom=0;right=0;pointerEvents=1;fontSize=16;shadow=1;" vertex="1" parent="WxOFqhejSJ8d4apdW_I4-258">
          <mxGeometry width="43" height="25" as="geometry">
            <mxRectangle width="43" height="25" as="alternateBounds" />
          </mxGeometry>
        </mxCell>
        <mxCell id="WxOFqhejSJ8d4apdW_I4-260" value="" style="shape=partialRectangle;html=1;whiteSpace=wrap;connectable=0;strokeColor=inherit;overflow=hidden;fillColor=none;top=0;left=0;bottom=0;right=0;pointerEvents=1;fontSize=16;shadow=1;" vertex="1" parent="WxOFqhejSJ8d4apdW_I4-258">
          <mxGeometry x="43" width="42" height="25" as="geometry">
            <mxRectangle width="42" height="25" as="alternateBounds" />
          </mxGeometry>
        </mxCell>
        <mxCell id="WxOFqhejSJ8d4apdW_I4-261" value="" style="shape=partialRectangle;html=1;whiteSpace=wrap;connectable=0;strokeColor=inherit;overflow=hidden;fillColor=none;top=0;left=0;bottom=0;right=0;pointerEvents=1;fontSize=16;shadow=1;" vertex="1" parent="WxOFqhejSJ8d4apdW_I4-258">
          <mxGeometry x="85" width="43" height="25" as="geometry">
            <mxRectangle width="43" height="25" as="alternateBounds" />
          </mxGeometry>
        </mxCell>
        <mxCell id="WxOFqhejSJ8d4apdW_I4-262" value="Q" style="shape=partialRectangle;html=1;whiteSpace=wrap;connectable=0;strokeColor=inherit;overflow=hidden;fillColor=none;top=0;left=0;bottom=0;right=0;pointerEvents=1;fontSize=16;shadow=1;" vertex="1" parent="WxOFqhejSJ8d4apdW_I4-258">
          <mxGeometry x="128" width="42" height="25" as="geometry">
            <mxRectangle width="42" height="25" as="alternateBounds" />
          </mxGeometry>
        </mxCell>
        <mxCell id="WxOFqhejSJ8d4apdW_I4-263" value="" style="shape=tableRow;horizontal=0;startSize=0;swimlaneHead=0;swimlaneBody=0;strokeColor=inherit;top=0;left=0;bottom=0;right=0;collapsible=0;dropTarget=0;fillColor=none;points=[[0,0.5],[1,0.5]];portConstraint=eastwest;fontSize=16;shadow=1;" vertex="1" parent="WxOFqhejSJ8d4apdW_I4-252">
          <mxGeometry y="50" width="170" height="25" as="geometry" />
        </mxCell>
        <mxCell id="WxOFqhejSJ8d4apdW_I4-264" value="Q" style="shape=partialRectangle;html=1;whiteSpace=wrap;connectable=0;strokeColor=inherit;overflow=hidden;fillColor=none;top=0;left=0;bottom=0;right=0;pointerEvents=1;fontSize=16;shadow=1;" vertex="1" parent="WxOFqhejSJ8d4apdW_I4-263">
          <mxGeometry width="43" height="25" as="geometry">
            <mxRectangle width="43" height="25" as="alternateBounds" />
          </mxGeometry>
        </mxCell>
        <mxCell id="WxOFqhejSJ8d4apdW_I4-265" value="" style="shape=partialRectangle;html=1;whiteSpace=wrap;connectable=0;strokeColor=inherit;overflow=hidden;fillColor=none;top=0;left=0;bottom=0;right=0;pointerEvents=1;fontSize=16;shadow=1;" vertex="1" parent="WxOFqhejSJ8d4apdW_I4-263">
          <mxGeometry x="43" width="42" height="25" as="geometry">
            <mxRectangle width="42" height="25" as="alternateBounds" />
          </mxGeometry>
        </mxCell>
        <mxCell id="WxOFqhejSJ8d4apdW_I4-266" value="" style="shape=partialRectangle;html=1;whiteSpace=wrap;connectable=0;strokeColor=inherit;overflow=hidden;fillColor=none;top=0;left=0;bottom=0;right=0;pointerEvents=1;fontSize=16;shadow=1;" vertex="1" parent="WxOFqhejSJ8d4apdW_I4-263">
          <mxGeometry x="85" width="43" height="25" as="geometry">
            <mxRectangle width="43" height="25" as="alternateBounds" />
          </mxGeometry>
        </mxCell>
        <mxCell id="WxOFqhejSJ8d4apdW_I4-267" style="shape=partialRectangle;html=1;whiteSpace=wrap;connectable=0;strokeColor=inherit;overflow=hidden;fillColor=none;top=0;left=0;bottom=0;right=0;pointerEvents=1;fontSize=16;shadow=1;" vertex="1" parent="WxOFqhejSJ8d4apdW_I4-263">
          <mxGeometry x="128" width="42" height="25" as="geometry">
            <mxRectangle width="42" height="25" as="alternateBounds" />
          </mxGeometry>
        </mxCell>
        <mxCell id="WxOFqhejSJ8d4apdW_I4-268" style="shape=tableRow;horizontal=0;startSize=0;swimlaneHead=0;swimlaneBody=0;strokeColor=inherit;top=0;left=0;bottom=0;right=0;collapsible=0;dropTarget=0;fillColor=none;points=[[0,0.5],[1,0.5]];portConstraint=eastwest;fontSize=16;shadow=1;" vertex="1" parent="WxOFqhejSJ8d4apdW_I4-252">
          <mxGeometry y="75" width="170" height="25" as="geometry" />
        </mxCell>
        <mxCell id="WxOFqhejSJ8d4apdW_I4-269" style="shape=partialRectangle;html=1;whiteSpace=wrap;connectable=0;strokeColor=inherit;overflow=hidden;fillColor=none;top=0;left=0;bottom=0;right=0;pointerEvents=1;fontSize=16;shadow=1;" vertex="1" parent="WxOFqhejSJ8d4apdW_I4-268">
          <mxGeometry width="43" height="25" as="geometry">
            <mxRectangle width="43" height="25" as="alternateBounds" />
          </mxGeometry>
        </mxCell>
        <mxCell id="WxOFqhejSJ8d4apdW_I4-270" style="shape=partialRectangle;html=1;whiteSpace=wrap;connectable=0;strokeColor=inherit;overflow=hidden;fillColor=none;top=0;left=0;bottom=0;right=0;pointerEvents=1;fontSize=16;shadow=1;" vertex="1" parent="WxOFqhejSJ8d4apdW_I4-268">
          <mxGeometry x="43" width="42" height="25" as="geometry">
            <mxRectangle width="42" height="25" as="alternateBounds" />
          </mxGeometry>
        </mxCell>
        <mxCell id="WxOFqhejSJ8d4apdW_I4-271" value="Q" style="shape=partialRectangle;html=1;whiteSpace=wrap;connectable=0;strokeColor=inherit;overflow=hidden;fillColor=none;top=0;left=0;bottom=0;right=0;pointerEvents=1;fontSize=16;shadow=1;" vertex="1" parent="WxOFqhejSJ8d4apdW_I4-268">
          <mxGeometry x="85" width="43" height="25" as="geometry">
            <mxRectangle width="43" height="25" as="alternateBounds" />
          </mxGeometry>
        </mxCell>
        <mxCell id="WxOFqhejSJ8d4apdW_I4-272" style="shape=partialRectangle;html=1;whiteSpace=wrap;connectable=0;strokeColor=inherit;overflow=hidden;fillColor=none;top=0;left=0;bottom=0;right=0;pointerEvents=1;fontSize=16;shadow=1;" vertex="1" parent="WxOFqhejSJ8d4apdW_I4-268">
          <mxGeometry x="128" width="42" height="25" as="geometry">
            <mxRectangle width="42" height="25" as="alternateBounds" />
          </mxGeometry>
        </mxCell>
        <mxCell id="WxOFqhejSJ8d4apdW_I4-273" value="3, 2" style="text;html=1;strokeColor=#00994D;fillColor=none;align=center;verticalAlign=middle;whiteSpace=wrap;rounded=0;shadow=1;" vertex="1" parent="1">
          <mxGeometry x="825" y="730" width="60" height="30" as="geometry" />
        </mxCell>
        <mxCell id="WxOFqhejSJ8d4apdW_I4-274" style="edgeStyle=orthogonalEdgeStyle;rounded=0;orthogonalLoop=1;jettySize=auto;html=1;entryX=1;entryY=0.5;entryDx=0;entryDy=0;exitX=1;exitY=0.5;exitDx=0;exitDy=0;" edge="1" parent="1" source="WxOFqhejSJ8d4apdW_I4-253" target="WxOFqhejSJ8d4apdW_I4-241">
          <mxGeometry relative="1" as="geometry">
            <mxPoint x="545" y="818" as="sourcePoint" />
            <mxPoint x="505" y="613" as="targetPoint" />
          </mxGeometry>
        </mxCell>
        <mxCell id="WxOFqhejSJ8d4apdW_I4-275" value="backtrack" style="edgeLabel;html=1;align=center;verticalAlign=middle;resizable=0;points=[];" vertex="1" connectable="0" parent="WxOFqhejSJ8d4apdW_I4-274">
          <mxGeometry x="0.1357" y="3" relative="1" as="geometry">
            <mxPoint as="offset" />
          </mxGeometry>
        </mxCell>
        <mxCell id="WxOFqhejSJ8d4apdW_I4-276" style="edgeStyle=orthogonalEdgeStyle;rounded=0;orthogonalLoop=1;jettySize=auto;html=1;entryX=1;entryY=0.5;entryDx=0;entryDy=0;exitX=1;exitY=0.5;exitDx=0;exitDy=0;" edge="1" parent="1" source="WxOFqhejSJ8d4apdW_I4-231" target="WxOFqhejSJ8d4apdW_I4-224">
          <mxGeometry relative="1" as="geometry">
            <mxPoint x="980" y="783" as="sourcePoint" />
            <mxPoint x="930" y="643" as="targetPoint" />
          </mxGeometry>
        </mxCell>
        <mxCell id="WxOFqhejSJ8d4apdW_I4-277" value="backtrack" style="edgeLabel;html=1;align=center;verticalAlign=middle;resizable=0;points=[];" vertex="1" connectable="0" parent="WxOFqhejSJ8d4apdW_I4-276">
          <mxGeometry x="0.1357" y="3" relative="1" as="geometry">
            <mxPoint as="offset" />
          </mxGeometry>
        </mxCell>
        <mxCell id="WxOFqhejSJ8d4apdW_I4-278" style="edgeStyle=orthogonalEdgeStyle;rounded=0;orthogonalLoop=1;jettySize=auto;html=1;entryX=1;entryY=0.5;entryDx=0;entryDy=0;exitX=1;exitY=0.5;exitDx=0;exitDy=0;" edge="1" parent="1" source="WxOFqhejSJ8d4apdW_I4-209" target="WxOFqhejSJ8d4apdW_I4-202">
          <mxGeometry relative="1" as="geometry">
            <mxPoint x="930" y="593" as="sourcePoint" />
            <mxPoint x="850" y="478" as="targetPoint" />
          </mxGeometry>
        </mxCell>
        <mxCell id="WxOFqhejSJ8d4apdW_I4-279" value="backtrack" style="edgeLabel;html=1;align=center;verticalAlign=middle;resizable=0;points=[];" vertex="1" connectable="0" parent="WxOFqhejSJ8d4apdW_I4-278">
          <mxGeometry x="0.1357" y="3" relative="1" as="geometry">
            <mxPoint as="offset" />
          </mxGeometry>
        </mxCell>
      </root>
    </mxGraphModel>
  </diagram>
</mxfile>
